  0
SECTION
  2
BLOCKS
  0
ENDSEC
  0
SECTION
  2
ENTITIES
  0
LINE
  8
0
 10
-170.25
 11
-170.25
 20
-165
 21
165
  0
LINE
  8
0
 10
-170.25
 11
54.712
 20
165
 21
165
  0
LINE
  8
0
 10
54.712
 11
115
 20
165
 21
130.192
  0
LINE
  8
0
 10
115
 11
115
 20
130.192
 21
-130.192
  0
LINE
  8
0
 10
115
 11
54.712
 20
-130.192
 21
-165
  0
LINE
  8
0
 10
54.712
 11
-170.25
 20
-165
 21
-165
  0
LINE
  8
0
 10
-165
 11
-164.732
 20
-30
 21
-29
  0
LINE
  8
0
 10
-164.732
 11
-164
 20
-29
 21
-28.268
  0
LINE
  8
0
 10
-164
 11
-163
 20
-28.268
 21
-28
  0
LINE
  8
0
 10
-163
 11
-162
 20
-28
 21
-28.268
  0
LINE
  8
0
 10
-162
 11
-161.268
 20
-28.268
 21
-29
  0
LINE
  8
0
 10
-161.268
 11
-161
 20
-29
 21
-30
  0
LINE
  8
0
 10
-161
 11
-161.268
 20
-30
 21
-31
  0
LINE
  8
0
 10
-161.268
 11
-162
 20
-31
 21
-31.732
  0
LINE
  8
0
 10
-162
 11
-163
 20
-31.732
 21
-32
  0
LINE
  8
0
 10
-163
 11
-164
 20
-32
 21
-31.732
  0
LINE
  8
0
 10
-164
 11
-164.732
 20
-31.732
 21
-31
  0
LINE
  8
0
 10
-164.732
 11
-165
 20
-31
 21
-30
  0
LINE
  8
0
 10
-165
 11
-164.732
 20
30
 21
31
  0
LINE
  8
0
 10
-164.732
 11
-164
 20
31
 21
31.732
  0
LINE
  8
0
 10
-164
 11
-163
 20
31.732
 21
32
  0
LINE
  8
0
 10
-163
 11
-162
 20
32
 21
31.732
  0
LINE
  8
0
 10
-162
 11
-161.268
 20
31.732
 21
31
  0
LINE
  8
0
 10
-161.268
 11
-161
 20
31
 21
30
  0
LINE
  8
0
 10
-161
 11
-161.268
 20
30
 21
29
  0
LINE
  8
0
 10
-161.268
 11
-162
 20
29
 21
28.268
  0
LINE
  8
0
 10
-162
 11
-163
 20
28.268
 21
28
  0
LINE
  8
0
 10
-163
 11
-164
 20
28
 21
28.268
  0
LINE
  8
0
 10
-164
 11
-164.732
 20
28.268
 21
29
  0
LINE
  8
0
 10
-164.732
 11
-165
 20
29
 21
30
  0
LINE
  8
0
 10
-161.95
 11
-161.564
 20
-133.695
 21
-132.003
  0
LINE
  8
0
 10
-161.564
 11
-160
 20
-132.003
 21
-131.25
  0
LINE
  8
0
 10
-160
 11
-158.436
 20
-131.25
 21
-132.003
  0
LINE
  8
0
 10
-158.436
 11
-158.05
 20
-132.003
 21
-133.695
  0
LINE
  8
0
 10
-158.05
 11
-159.132
 20
-133.695
 21
-135.052
  0
LINE
  8
0
 10
-159.132
 11
-160.868
 20
-135.052
 21
-135.052
  0
LINE
  8
0
 10
-160.868
 11
-161.95
 20
-135.052
 21
-133.695
  0
LINE
  8
0
 10
-161.95
 11
-161.564
 20
-101.945
 21
-100.253
  0
LINE
  8
0
 10
-161.564
 11
-160
 20
-100.253
 21
-99.5
  0
LINE
  8
0
 10
-160
 11
-158.436
 20
-99.5
 21
-100.253
  0
LINE
  8
0
 10
-158.436
 11
-158.05
 20
-100.253
 21
-101.945
  0
LINE
  8
0
 10
-158.05
 11
-159.132
 20
-101.945
 21
-103.302
  0
LINE
  8
0
 10
-159.132
 11
-160.868
 20
-103.302
 21
-103.302
  0
LINE
  8
0
 10
-160.868
 11
-161.95
 20
-103.302
 21
-101.945
  0
LINE
  8
0
 10
-161.95
 11
-160.868
 20
101.945
 21
103.302
  0
LINE
  8
0
 10
-160.868
 11
-159.132
 20
103.302
 21
103.302
  0
LINE
  8
0
 10
-159.132
 11
-158.05
 20
103.302
 21
101.945
  0
LINE
  8
0
 10
-158.05
 11
-158.436
 20
101.945
 21
100.253
  0
LINE
  8
0
 10
-158.436
 11
-160
 20
100.253
 21
99.5
  0
LINE
  8
0
 10
-160
 11
-161.564
 20
99.5
 21
100.253
  0
LINE
  8
0
 10
-161.564
 11
-161.95
 20
100.253
 21
101.945
  0
LINE
  8
0
 10
-161.95
 11
-160.868
 20
133.695
 21
135.052
  0
LINE
  8
0
 10
-160.868
 11
-159.132
 20
135.052
 21
135.052
  0
LINE
  8
0
 10
-159.132
 11
-158.05
 20
135.052
 21
133.695
  0
LINE
  8
0
 10
-158.05
 11
-158.436
 20
133.695
 21
132.003
  0
LINE
  8
0
 10
-158.436
 11
-160
 20
132.003
 21
131.25
  0
LINE
  8
0
 10
-160
 11
-161.564
 20
131.25
 21
132.003
  0
LINE
  8
0
 10
-161.564
 11
-161.95
 20
132.003
 21
133.695
  0
LINE
  8
0
 10
-140.052
 11
-140.052
 20
-155.868
 21
-154.132
  0
LINE
  8
0
 10
-140.052
 11
-138.695
 20
-154.132
 21
-153.05
  0
LINE
  8
0
 10
-138.695
 11
-137.003
 20
-153.05
 21
-153.436
  0
LINE
  8
0
 10
-137.003
 11
-136.25
 20
-153.436
 21
-155
  0
LINE
  8
0
 10
-136.25
 11
-137.003
 20
-155
 21
-156.564
  0
LINE
  8
0
 10
-137.003
 11
-138.695
 20
-156.564
 21
-156.95
  0
LINE
  8
0
 10
-138.695
 11
-140.052
 20
-156.95
 21
-155.868
  0
LINE
  8
0
 10
-140.052
 11
-140.052
 20
154.132
 21
155.868
  0
LINE
  8
0
 10
-140.052
 11
-138.695
 20
155.868
 21
156.95
  0
LINE
  8
0
 10
-138.695
 11
-137.003
 20
156.95
 21
156.564
  0
LINE
  8
0
 10
-137.003
 11
-136.25
 20
156.564
 21
155
  0
LINE
  8
0
 10
-136.25
 11
-137.003
 20
155
 21
153.436
  0
LINE
  8
0
 10
-137.003
 11
-138.695
 20
153.436
 21
153.05
  0
LINE
  8
0
 10
-138.695
 11
-140.052
 20
153.05
 21
154.132
  0
LINE
  8
0
 10
-130
 11
-129.822
 20
0
 21
6.804
  0
LINE
  8
0
 10
-129.822
 11
-129.288
 20
6.804
 21
13.589
  0
LINE
  8
0
 10
-129.288
 11
-128.399
 20
13.589
 21
20.336
  0
LINE
  8
0
 10
-128.399
 11
-127.159
 20
20.336
 21
27.029
  0
LINE
  8
0
 10
-127.159
 11
-125.57
 20
27.029
 21
33.646
  0
LINE
  8
0
 10
-125.57
 11
-123.637
 20
33.646
 21
40.172
  0
LINE
  8
0
 10
-123.637
 11
-121.365
 20
40.172
 21
46.588
  0
LINE
  8
0
 10
-121.365
 11
-118.761
 20
46.588
 21
52.876
  0
LINE
  8
0
 10
-118.761
 11
-115.831
 20
52.876
 21
59.019
  0
LINE
  8
0
 10
-115.831
 11
-112.583
 20
59.019
 21
65
  0
LINE
  8
0
 10
-112.583
 11
-109.027
 20
65
 21
70.803
  0
LINE
  8
0
 10
-109.027
 11
-105.172
 20
70.803
 21
76.412
  0
LINE
  8
0
 10
-105.172
 11
-101.029
 20
76.412
 21
81.812
  0
LINE
  8
0
 10
-101.029
 11
-96.609
 20
81.812
 21
86.987
  0
LINE
  8
0
 10
-96.609
 11
-91.924
 20
86.987
 21
91.924
  0
LINE
  8
0
 10
-91.924
 11
-86.987
 20
91.924
 21
96.609
  0
LINE
  8
0
 10
-86.987
 11
-81.812
 20
96.609
 21
101.029
  0
LINE
  8
0
 10
-81.812
 11
-76.412
 20
101.029
 21
105.172
  0
LINE
  8
0
 10
-76.412
 11
-70.803
 20
105.172
 21
109.027
  0
LINE
  8
0
 10
-70.803
 11
-65
 20
109.027
 21
112.583
  0
LINE
  8
0
 10
-65
 11
-59.019
 20
112.583
 21
115.831
  0
LINE
  8
0
 10
-59.019
 11
-52.876
 20
115.831
 21
118.761
  0
LINE
  8
0
 10
-52.876
 11
-46.588
 20
118.761
 21
121.365
  0
LINE
  8
0
 10
-46.588
 11
-40.172
 20
121.365
 21
123.637
  0
LINE
  8
0
 10
-40.172
 11
-33.646
 20
123.637
 21
125.57
  0
LINE
  8
0
 10
-33.646
 11
-27.029
 20
125.57
 21
127.159
  0
LINE
  8
0
 10
-27.029
 11
-20.336
 20
127.159
 21
128.399
  0
LINE
  8
0
 10
-20.336
 11
-13.589
 20
128.399
 21
129.288
  0
LINE
  8
0
 10
-13.589
 11
-6.804
 20
129.288
 21
129.822
  0
LINE
  8
0
 10
-6.804
 11
0
 20
129.822
 21
130
  0
LINE
  8
0
 10
0
 11
6.804
 20
130
 21
129.822
  0
LINE
  8
0
 10
6.804
 11
13.589
 20
129.822
 21
129.288
  0
LINE
  8
0
 10
13.589
 11
20.336
 20
129.288
 21
128.399
  0
LINE
  8
0
 10
20.336
 11
27.029
 20
128.399
 21
127.159
  0
LINE
  8
0
 10
27.029
 11
33.646
 20
127.159
 21
125.57
  0
LINE
  8
0
 10
33.646
 11
40.172
 20
125.57
 21
123.637
  0
LINE
  8
0
 10
40.172
 11
46.588
 20
123.637
 21
121.365
  0
LINE
  8
0
 10
46.588
 11
52.876
 20
121.365
 21
118.761
  0
LINE
  8
0
 10
52.876
 11
59.019
 20
118.761
 21
115.831
  0
LINE
  8
0
 10
59.019
 11
65
 20
115.831
 21
112.583
  0
LINE
  8
0
 10
65
 11
70.803
 20
112.583
 21
109.027
  0
LINE
  8
0
 10
70.803
 11
75
 20
109.027
 21
106.143
  0
LINE
  8
0
 10
75
 11
75
 20
106.143
 21
-106.143
  0
LINE
  8
0
 10
75
 11
70.803
 20
-106.143
 21
-109.027
  0
LINE
  8
0
 10
70.803
 11
65
 20
-109.027
 21
-112.583
  0
LINE
  8
0
 10
65
 11
59.019
 20
-112.583
 21
-115.831
  0
LINE
  8
0
 10
59.019
 11
52.876
 20
-115.831
 21
-118.761
  0
LINE
  8
0
 10
52.876
 11
46.588
 20
-118.761
 21
-121.365
  0
LINE
  8
0
 10
46.588
 11
40.172
 20
-121.365
 21
-123.637
  0
LINE
  8
0
 10
40.172
 11
33.646
 20
-123.637
 21
-125.57
  0
LINE
  8
0
 10
33.646
 11
27.029
 20
-125.57
 21
-127.159
  0
LINE
  8
0
 10
27.029
 11
20.336
 20
-127.159
 21
-128.399
  0
LINE
  8
0
 10
20.336
 11
13.589
 20
-128.399
 21
-129.288
  0
LINE
  8
0
 10
13.589
 11
6.804
 20
-129.288
 21
-129.822
  0
LINE
  8
0
 10
6.804
 11
0
 20
-129.822
 21
-130
  0
LINE
  8
0
 10
0
 11
-6.804
 20
-130
 21
-129.822
  0
LINE
  8
0
 10
-6.804
 11
-13.589
 20
-129.822
 21
-129.288
  0
LINE
  8
0
 10
-13.589
 11
-20.336
 20
-129.288
 21
-128.399
  0
LINE
  8
0
 10
-20.336
 11
-27.029
 20
-128.399
 21
-127.159
  0
LINE
  8
0
 10
-27.029
 11
-33.646
 20
-127.159
 21
-125.57
  0
LINE
  8
0
 10
-33.646
 11
-40.172
 20
-125.57
 21
-123.637
  0
LINE
  8
0
 10
-40.172
 11
-46.588
 20
-123.637
 21
-121.365
  0
LINE
  8
0
 10
-46.588
 11
-52.876
 20
-121.365
 21
-118.761
  0
LINE
  8
0
 10
-52.876
 11
-59.019
 20
-118.761
 21
-115.831
  0
LINE
  8
0
 10
-59.019
 11
-65
 20
-115.831
 21
-112.583
  0
LINE
  8
0
 10
-65
 11
-70.803
 20
-112.583
 21
-109.027
  0
LINE
  8
0
 10
-70.803
 11
-76.412
 20
-109.027
 21
-105.172
  0
LINE
  8
0
 10
-76.412
 11
-81.812
 20
-105.172
 21
-101.029
  0
LINE
  8
0
 10
-81.812
 11
-86.987
 20
-101.029
 21
-96.609
  0
LINE
  8
0
 10
-86.987
 11
-91.924
 20
-96.609
 21
-91.924
  0
LINE
  8
0
 10
-91.924
 11
-96.609
 20
-91.924
 21
-86.987
  0
LINE
  8
0
 10
-96.609
 11
-101.029
 20
-86.987
 21
-81.812
  0
LINE
  8
0
 10
-101.029
 11
-105.172
 20
-81.812
 21
-76.412
  0
LINE
  8
0
 10
-105.172
 11
-109.027
 20
-76.412
 21
-70.803
  0
LINE
  8
0
 10
-109.027
 11
-112.583
 20
-70.803
 21
-65
  0
LINE
  8
0
 10
-112.583
 11
-115.831
 20
-65
 21
-59.019
  0
LINE
  8
0
 10
-115.831
 11
-118.761
 20
-59.019
 21
-52.876
  0
LINE
  8
0
 10
-118.761
 11
-121.365
 20
-52.876
 21
-46.588
  0
LINE
  8
0
 10
-121.365
 11
-123.637
 20
-46.588
 21
-40.172
  0
LINE
  8
0
 10
-123.637
 11
-125.57
 20
-40.172
 21
-33.646
  0
LINE
  8
0
 10
-125.57
 11
-127.159
 20
-33.646
 21
-27.029
  0
LINE
  8
0
 10
-127.159
 11
-128.399
 20
-27.029
 21
-20.336
  0
LINE
  8
0
 10
-128.399
 11
-129.288
 20
-20.336
 21
-13.589
  0
LINE
  8
0
 10
-129.288
 11
-129.822
 20
-13.589
 21
-6.804
  0
LINE
  8
0
 10
-129.822
 11
-130
 20
-6.804
 21
0
  0
LINE
  8
0
 10
-108.302
 11
-108.302
 20
-155.868
 21
-154.132
  0
LINE
  8
0
 10
-108.302
 11
-106.945
 20
-154.132
 21
-153.05
  0
LINE
  8
0
 10
-106.945
 11
-105.253
 20
-153.05
 21
-153.436
  0
LINE
  8
0
 10
-105.253
 11
-104.5
 20
-153.436
 21
-155
  0
LINE
  8
0
 10
-104.5
 11
-105.253
 20
-155
 21
-156.564
  0
LINE
  8
0
 10
-105.253
 11
-106.945
 20
-156.564
 21
-156.95
  0
LINE
  8
0
 10
-106.945
 11
-108.302
 20
-156.95
 21
-155.868
  0
LINE
  8
0
 10
-108.302
 11
-108.302
 20
154.132
 21
155.868
  0
LINE
  8
0
 10
-108.302
 11
-106.945
 20
155.868
 21
156.95
  0
LINE
  8
0
 10
-106.945
 11
-105.253
 20
156.95
 21
156.564
  0
LINE
  8
0
 10
-105.253
 11
-104.5
 20
156.564
 21
155
  0
LINE
  8
0
 10
-104.5
 11
-105.253
 20
155
 21
153.436
  0
LINE
  8
0
 10
-105.253
 11
-106.945
 20
153.436
 21
153.05
  0
LINE
  8
0
 10
-106.945
 11
-108.302
 20
153.05
 21
154.132
  0
LINE
  8
0
 10
53.519
 11
53.787
 20
-156.162
 21
-155.162
  0
LINE
  8
0
 10
53.787
 11
54.519
 20
-155.162
 21
-154.43
  0
LINE
  8
0
 10
54.519
 11
55.519
 20
-154.43
 21
-154.162
  0
LINE
  8
0
 10
55.519
 11
56.519
 20
-154.162
 21
-154.43
  0
LINE
  8
0
 10
56.519
 11
57.251
 20
-154.43
 21
-155.162
  0
LINE
  8
0
 10
57.251
 11
57.519
 20
-155.162
 21
-156.162
  0
LINE
  8
0
 10
57.519
 11
57.251
 20
-156.162
 21
-157.162
  0
LINE
  8
0
 10
57.251
 11
56.519
 20
-157.162
 21
-157.894
  0
LINE
  8
0
 10
56.519
 11
55.519
 20
-157.894
 21
-158.162
  0
LINE
  8
0
 10
55.519
 11
54.519
 20
-158.162
 21
-157.894
  0
LINE
  8
0
 10
54.519
 11
53.787
 20
-157.894
 21
-157.162
  0
LINE
  8
0
 10
53.787
 11
53.519
 20
-157.162
 21
-156.162
  0
LINE
  8
0
 10
53.519
 11
53.787
 20
156.162
 21
157.162
  0
LINE
  8
0
 10
53.787
 11
54.519
 20
157.162
 21
157.894
  0
LINE
  8
0
 10
54.519
 11
55.519
 20
157.894
 21
158.162
  0
LINE
  8
0
 10
55.519
 11
56.519
 20
158.162
 21
157.894
  0
LINE
  8
0
 10
56.519
 11
57.251
 20
157.894
 21
157.162
  0
LINE
  8
0
 10
57.251
 11
57.519
 20
157.162
 21
156.162
  0
LINE
  8
0
 10
57.519
 11
57.251
 20
156.162
 21
155.162
  0
LINE
  8
0
 10
57.251
 11
56.519
 20
155.162
 21
154.43
  0
LINE
  8
0
 10
56.519
 11
55.519
 20
154.43
 21
154.162
  0
LINE
  8
0
 10
55.519
 11
54.519
 20
154.162
 21
154.43
  0
LINE
  8
0
 10
54.519
 11
53.787
 20
154.43
 21
155.162
  0
LINE
  8
0
 10
53.787
 11
53.519
 20
155.162
 21
156.162
  0
LINE
  8
0
 10
105.481
 11
105.749
 20
-126.162
 21
-125.162
  0
LINE
  8
0
 10
105.749
 11
106.481
 20
-125.162
 21
-124.43
  0
LINE
  8
0
 10
106.481
 11
107.481
 20
-124.43
 21
-124.162
  0
LINE
  8
0
 10
107.481
 11
108.481
 20
-124.162
 21
-124.43
  0
LINE
  8
0
 10
108.481
 11
109.213
 20
-124.43
 21
-125.162
  0
LINE
  8
0
 10
109.213
 11
109.481
 20
-125.162
 21
-126.162
  0
LINE
  8
0
 10
109.481
 11
109.213
 20
-126.162
 21
-127.162
  0
LINE
  8
0
 10
109.213
 11
108.481
 20
-127.162
 21
-127.894
  0
LINE
  8
0
 10
108.481
 11
107.481
 20
-127.894
 21
-128.162
  0
LINE
  8
0
 10
107.481
 11
106.481
 20
-128.162
 21
-127.894
  0
LINE
  8
0
 10
106.481
 11
105.749
 20
-127.894
 21
-127.162
  0
LINE
  8
0
 10
105.749
 11
105.481
 20
-127.162
 21
-126.162
  0
LINE
  8
0
 10
105.481
 11
105.749
 20
126.162
 21
127.162
  0
LINE
  8
0
 10
105.749
 11
106.481
 20
127.162
 21
127.894
  0
LINE
  8
0
 10
106.481
 11
107.481
 20
127.894
 21
128.162
  0
LINE
  8
0
 10
107.481
 11
108.481
 20
128.162
 21
127.894
  0
LINE
  8
0
 10
108.481
 11
109.213
 20
127.894
 21
127.162
  0
LINE
  8
0
 10
109.213
 11
109.481
 20
127.162
 21
126.162
  0
LINE
  8
0
 10
109.481
 11
109.213
 20
126.162
 21
125.162
  0
LINE
  8
0
 10
109.213
 11
108.481
 20
125.162
 21
124.43
  0
LINE
  8
0
 10
108.481
 11
107.481
 20
124.43
 21
124.162
  0
LINE
  8
0
 10
107.481
 11
106.481
 20
124.162
 21
124.43
  0
LINE
  8
0
 10
106.481
 11
105.749
 20
124.43
 21
125.162
  0
LINE
  8
0
 10
105.749
 11
105.481
 20
125.162
 21
126.162
  0
ENDSEC
  0
SECTION
  2
OBJECTS
  0
DICTIONARY
  0
ENDSEC
  0
EOF
