solid OpenSCAD_Model
  facet normal -1 0 0
    outer loop
      vertex 0 0 0
      vertex 0 0 30
      vertex 0 40 0
    endloop
  endfacet
  facet normal -1 0 0
    outer loop
      vertex 0 40 0
      vertex 0 0 30
      vertex 0 40 30
    endloop
  endfacet
  facet normal 0 -1 0
    outer loop
      vertex 0 0 30
      vertex 0 0 0
      vertex 40 0 0
    endloop
  endfacet
  facet normal 0 -1 0
    outer loop
      vertex 40 0 30
      vertex 0 0 30
      vertex 40 0 0
    endloop
  endfacet
  facet normal 0 0 -1
    outer loop
      vertex 40 7 0
      vertex 40 0 0
      vertex 7 7 0
    endloop
  endfacet
  facet normal 0 0 -1
    outer loop
      vertex 0 0 0
      vertex 0 40 0
      vertex 7 7 0
    endloop
  endfacet
  facet normal 0 0 -1
    outer loop
      vertex 0 0 0
      vertex 7 7 0
      vertex 40 0 0
    endloop
  endfacet
  facet normal 0 0 -1
    outer loop
      vertex 7 7 0
      vertex 0 40 0
      vertex 7 40 0
    endloop
  endfacet
  facet normal 0 1 0
    outer loop
      vertex 0 40 0
      vertex 0 40 30
      vertex 2.5 40 3
    endloop
  endfacet
  facet normal 0 1 0
    outer loop
      vertex 0 40 0
      vertex 2.5 40 3
      vertex 7 40 0
    endloop
  endfacet
  facet normal 0 1 0
    outer loop
      vertex 5 40 30
      vertex 7 40 0
      vertex 5 40 3
    endloop
  endfacet
  facet normal 0 1 0
    outer loop
      vertex 2.5 40 3
      vertex 5 40 3
      vertex 7 40 0
    endloop
  endfacet
  facet normal 0 1 0
    outer loop
      vertex 7 40 0
      vertex 5 40 30
      vertex 7 40 30
    endloop
  endfacet
  facet normal 0 1 0
    outer loop
      vertex 2.5 40 3
      vertex 0 40 30
      vertex 2.5 40 30
    endloop
  endfacet
  facet normal 0 0 1
    outer loop
      vertex 2.5 2.5 30
      vertex 0 0 30
      vertex 40 0 30
    endloop
  endfacet
  facet normal 0 0 1
    outer loop
      vertex 2.5 2.5 30
      vertex 2.5 40 30
      vertex 0 40 30
    endloop
  endfacet
  facet normal 0 0 1
    outer loop
      vertex 0 40 30
      vertex 0 0 30
      vertex 2.5 2.5 30
    endloop
  endfacet
  facet normal 0 0 1
    outer loop
      vertex 40 2.5 30
      vertex 2.5 2.5 30
      vertex 40 0 30
    endloop
  endfacet
  facet normal 1 0 0
    outer loop
      vertex 40 5 3
      vertex 40 0 0
      vertex 40 7 0
    endloop
  endfacet
  facet normal 1 0 0
    outer loop
      vertex 40 2.5 3
      vertex 40 2.5 30
      vertex 40 0 30
    endloop
  endfacet
  facet normal 1 0 0
    outer loop
      vertex 40 7 30
      vertex 40 5 30
      vertex 40 7 0
    endloop
  endfacet
  facet normal 1 0 0
    outer loop
      vertex 40 2.5 3
      vertex 40 0 0
      vertex 40 5 3
    endloop
  endfacet
  facet normal 1 0 0
    outer loop
      vertex 40 0 30
      vertex 40 0 0
      vertex 40 2.5 3
    endloop
  endfacet
  facet normal 1 0 0
    outer loop
      vertex 40 5 30
      vertex 40 5 3
      vertex 40 7 0
    endloop
  endfacet
  facet normal 0 1 0
    outer loop
      vertex 40 7 30
      vertex 40 7 0
      vertex 7 7 30
    endloop
  endfacet
  facet normal 0 1 0
    outer loop
      vertex 7 7 30
      vertex 40 7 0
      vertex 7 7 0
    endloop
  endfacet
  facet normal 1 0 0
    outer loop
      vertex 7 40 0
      vertex 7 40 30
      vertex 7 7 30
    endloop
  endfacet
  facet normal 1 0 0
    outer loop
      vertex 7 7 0
      vertex 7 40 0
      vertex 7 7 30
    endloop
  endfacet
  facet normal 0 0 1
    outer loop
      vertex 7 7 30
      vertex 5 5 30
      vertex 40 5 30
    endloop
  endfacet
  facet normal 0 0 1
    outer loop
      vertex 7 7 30
      vertex 7 40 30
      vertex 5 40 30
    endloop
  endfacet
  facet normal 0 0 1
    outer loop
      vertex 5 40 30
      vertex 5 5 30
      vertex 7 7 30
    endloop
  endfacet
  facet normal 0 0 1
    outer loop
      vertex 40 7 30
      vertex 7 7 30
      vertex 40 5 30
    endloop
  endfacet
  facet normal -1 0 0
    outer loop
      vertex 5 40 30
      vertex 5 40 3
      vertex 5 5 30
    endloop
  endfacet
  facet normal -1 0 0
    outer loop
      vertex 5 5 30
      vertex 5 40 3
      vertex 5 5 3
    endloop
  endfacet
  facet normal 0 0 1
    outer loop
      vertex 40 2.5 3
      vertex 40 5 3
      vertex 5 5 3
    endloop
  endfacet
  facet normal 0 0 1
    outer loop
      vertex 2.5 2.5 3
      vertex 40 2.5 3
      vertex 5 5 3
    endloop
  endfacet
  facet normal 0 0 1
    outer loop
      vertex 5 40 3
      vertex 2.5 40 3
      vertex 5 5 3
    endloop
  endfacet
  facet normal 0 0 1
    outer loop
      vertex 2.5 40 3
      vertex 2.5 2.5 3
      vertex 5 5 3
    endloop
  endfacet
  facet normal 1 0 0
    outer loop
      vertex 2.5 40 3
      vertex 2.5 40 30
      vertex 2.5 2.5 30
    endloop
  endfacet
  facet normal 1 0 0
    outer loop
      vertex 2.5 2.5 3
      vertex 2.5 40 3
      vertex 2.5 2.5 30
    endloop
  endfacet
  facet normal 0 1 0
    outer loop
      vertex 40 2.5 30
      vertex 40 2.5 3
      vertex 2.5 2.5 30
    endloop
  endfacet
  facet normal 0 1 0
    outer loop
      vertex 2.5 2.5 30
      vertex 40 2.5 3
      vertex 2.5 2.5 3
    endloop
  endfacet
  facet normal 0 -1 0
    outer loop
      vertex 40 5 3
      vertex 40 5 30
      vertex 5 5 30
    endloop
  endfacet
  facet normal 0 -1 0
    outer loop
      vertex 5 5 3
      vertex 40 5 3
      vertex 5 5 30
    endloop
  endfacet
endsolid OpenSCAD_Model
