solid OpenSCAD_Model
  facet normal -1 0 0
    outer loop
      vertex 0 0 0
      vertex 0 0 70
      vertex 0 40 0
    endloop
  endfacet
  facet normal -1 0 0
    outer loop
      vertex 0 40 0
      vertex 0 0 70
      vertex 0 40 70
    endloop
  endfacet
  facet normal 0 -1 0
    outer loop
      vertex 0 0 70
      vertex 0 0 0
      vertex 40 0 0
    endloop
  endfacet
  facet normal 0 -1 0
    outer loop
      vertex 40 0 70
      vertex 0 0 70
      vertex 40 0 0
    endloop
  endfacet
  facet normal 0 0 -1
    outer loop
      vertex 40 7 0
      vertex 40 0 0
      vertex 7 7 0
    endloop
  endfacet
  facet normal 0 0 -1
    outer loop
      vertex 0 0 0
      vertex 0 40 0
      vertex 7 7 0
    endloop
  endfacet
  facet normal 0 0 -1
    outer loop
      vertex 0 0 0
      vertex 7 7 0
      vertex 40 0 0
    endloop
  endfacet
  facet normal 0 0 -1
    outer loop
      vertex 7 7 0
      vertex 0 40 0
      vertex 7 40 0
    endloop
  endfacet
  facet normal 0 1 0
    outer loop
      vertex 0 40 0
      vertex 0 40 70
      vertex 2.5 40 3
    endloop
  endfacet
  facet normal 0 1 0
    outer loop
      vertex 0 40 0
      vertex 2.5 40 3
      vertex 7 40 0
    endloop
  endfacet
  facet normal 0 1 0
    outer loop
      vertex 5 40 70
      vertex 7 40 0
      vertex 5 40 3
    endloop
  endfacet
  facet normal 0 1 0
    outer loop
      vertex 2.5 40 3
      vertex 5 40 3
      vertex 7 40 0
    endloop
  endfacet
  facet normal 0 1 0
    outer loop
      vertex 7 40 0
      vertex 5 40 70
      vertex 7 40 70
    endloop
  endfacet
  facet normal 0 1 0
    outer loop
      vertex 2.5 40 3
      vertex 0 40 70
      vertex 2.5 40 70
    endloop
  endfacet
  facet normal 0 0 1
    outer loop
      vertex 5.1 2.5 70
      vertex 0 0 70
      vertex 40 0 70
    endloop
  endfacet
  facet normal 0 0 1
    outer loop
      vertex 5 40 70
      vertex 5 5.1 70
      vertex 5.1 5 70
    endloop
  endfacet
  facet normal 0 0 1
    outer loop
      vertex 5.1 5 70
      vertex 40 5 70
      vertex 7 7 70
    endloop
  endfacet
  facet normal 0 0 1
    outer loop
      vertex 2.5 5.1 70
      vertex 0 0 70
      vertex 5.1 2.5 70
    endloop
  endfacet
  facet normal 0 0 1
    outer loop
      vertex 5 5.1 70
      vertex 5.1 2.5 70
      vertex 5.1 5 70
    endloop
  endfacet
  facet normal 0 0 1
    outer loop
      vertex 5 40 70
      vertex 5.1 5 70
      vertex 7 7 70
    endloop
  endfacet
  facet normal 0 0 1
    outer loop
      vertex 5 5.1 70
      vertex 2.5 5.1 70
      vertex 5.1 2.5 70
    endloop
  endfacet
  facet normal 0 0 1
    outer loop
      vertex 2.5 5.1 70
      vertex 2.5 40 70
      vertex 0 40 70
    endloop
  endfacet
  facet normal 0 0 1
    outer loop
      vertex 0 40 70
      vertex 0 0 70
      vertex 2.5 5.1 70
    endloop
  endfacet
  facet normal 0 0 1
    outer loop
      vertex 7 7 70
      vertex 7 40 70
      vertex 5 40 70
    endloop
  endfacet
  facet normal 0 0 1
    outer loop
      vertex 40 7 70
      vertex 7 7 70
      vertex 40 5 70
    endloop
  endfacet
  facet normal 0 0 1
    outer loop
      vertex 40 2.5 70
      vertex 5.1 2.5 70
      vertex 40 0 70
    endloop
  endfacet
  facet normal 1 0 0
    outer loop
      vertex 40 5 3
      vertex 40 0 0
      vertex 40 7 0
    endloop
  endfacet
  facet normal 1 0 0
    outer loop
      vertex 40 2.5 3
      vertex 40 2.5 70
      vertex 40 0 70
    endloop
  endfacet
  facet normal 1 0 0
    outer loop
      vertex 40 7 70
      vertex 40 5 70
      vertex 40 7 0
    endloop
  endfacet
  facet normal 1 0 0
    outer loop
      vertex 40 2.5 3
      vertex 40 0 0
      vertex 40 5 3
    endloop
  endfacet
  facet normal 1 0 0
    outer loop
      vertex 40 0 70
      vertex 40 0 0
      vertex 40 2.5 3
    endloop
  endfacet
  facet normal 1 0 0
    outer loop
      vertex 40 5 70
      vertex 40 5 3
      vertex 40 7 0
    endloop
  endfacet
  facet normal 0 1 0
    outer loop
      vertex 40 7 70
      vertex 40 7 0
      vertex 7 7 70
    endloop
  endfacet
  facet normal 0 1 0
    outer loop
      vertex 7 7 70
      vertex 40 7 0
      vertex 7 7 0
    endloop
  endfacet
  facet normal 1 0 0
    outer loop
      vertex 7 40 0
      vertex 7 40 70
      vertex 7 7 70
    endloop
  endfacet
  facet normal 1 0 0
    outer loop
      vertex 7 7 0
      vertex 7 40 0
      vertex 7 7 70
    endloop
  endfacet
  facet normal -1 0 0
    outer loop
      vertex 5 40 70
      vertex 5 40 3
      vertex 5 5.1 70
    endloop
  endfacet
  facet normal -1 0 0
    outer loop
      vertex 5 5.1 70
      vertex 5 40 3
      vertex 5 5.1 3
    endloop
  endfacet
  facet normal 0 0 1
    outer loop
      vertex 5 5.1 3
      vertex 5 40 3
      vertex 2.5 40 3
    endloop
  endfacet
  facet normal 0 0 1
    outer loop
      vertex 2.5 5.1 3
      vertex 5 5.1 3
      vertex 2.5 40 3
    endloop
  endfacet
  facet normal 1 0 0
    outer loop
      vertex 2.5 40 3
      vertex 2.5 40 70
      vertex 2.5 5.1 70
    endloop
  endfacet
  facet normal 1 0 0
    outer loop
      vertex 2.5 5.1 3
      vertex 2.5 40 3
      vertex 2.5 5.1 70
    endloop
  endfacet
  facet normal 0 1 0
    outer loop
      vertex 5 5.1 70
      vertex 5 5.1 3
      vertex 2.5 5.1 70
    endloop
  endfacet
  facet normal 0 1 0
    outer loop
      vertex 2.5 5.1 70
      vertex 5 5.1 3
      vertex 2.5 5.1 3
    endloop
  endfacet
  facet normal 0 -1 0
    outer loop
      vertex 40 5 3
      vertex 40 5 70
      vertex 5.1 5 70
    endloop
  endfacet
  facet normal 0 -1 0
    outer loop
      vertex 5.1 5 3
      vertex 40 5 3
      vertex 5.1 5 70
    endloop
  endfacet
  facet normal 1 0 0
    outer loop
      vertex 5.1 5 3
      vertex 5.1 5 70
      vertex 5.1 2.5 70
    endloop
  endfacet
  facet normal 1 0 0
    outer loop
      vertex 5.1 2.5 3
      vertex 5.1 5 3
      vertex 5.1 2.5 70
    endloop
  endfacet
  facet normal 0 1 0
    outer loop
      vertex 40 2.5 70
      vertex 40 2.5 3
      vertex 5.1 2.5 70
    endloop
  endfacet
  facet normal 0 1 0
    outer loop
      vertex 5.1 2.5 70
      vertex 40 2.5 3
      vertex 5.1 2.5 3
    endloop
  endfacet
  facet normal 0 0 1
    outer loop
      vertex 40 2.5 3
      vertex 40 5 3
      vertex 5.1 5 3
    endloop
  endfacet
  facet normal 0 0 1
    outer loop
      vertex 5.1 2.5 3
      vertex 40 2.5 3
      vertex 5.1 5 3
    endloop
  endfacet
endsolid OpenSCAD_Model
