solid OpenSCAD_Model
  facet normal -1 0 0
    outer loop
      vertex 0 0 0
      vertex 0 0 40
      vertex 0 40 0
    endloop
  endfacet
  facet normal -1 0 0
    outer loop
      vertex 0 40 0
      vertex 0 0 40
      vertex 0 40 40
    endloop
  endfacet
  facet normal 0 -1 0
    outer loop
      vertex 0 0 40
      vertex 0 0 0
      vertex 40 0 0
    endloop
  endfacet
  facet normal 0 -1 0
    outer loop
      vertex 40 0 40
      vertex 0 0 40
      vertex 40 0 0
    endloop
  endfacet
  facet normal 0 0 -1
    outer loop
      vertex 40 7 0
      vertex 40 0 0
      vertex 7 7 0
    endloop
  endfacet
  facet normal 0 0 -1
    outer loop
      vertex 0 0 0
      vertex 0 40 0
      vertex 7 7 0
    endloop
  endfacet
  facet normal 0 0 -1
    outer loop
      vertex 0 0 0
      vertex 7 7 0
      vertex 40 0 0
    endloop
  endfacet
  facet normal 0 0 -1
    outer loop
      vertex 7 7 0
      vertex 0 40 0
      vertex 7 40 0
    endloop
  endfacet
  facet normal 0 1 0
    outer loop
      vertex 0 40 0
      vertex 0 40 40
      vertex 2.5 40 10
    endloop
  endfacet
  facet normal 0 1 0
    outer loop
      vertex 0 40 0
      vertex 2.5 40 10
      vertex 7 40 0
    endloop
  endfacet
  facet normal 0 1 0
    outer loop
      vertex 5 40 40
      vertex 7 40 0
      vertex 5 40 10
    endloop
  endfacet
  facet normal 0 1 0
    outer loop
      vertex 2.5 40 10
      vertex 5 40 10
      vertex 7 40 0
    endloop
  endfacet
  facet normal 0 1 0
    outer loop
      vertex 7 40 0
      vertex 5 40 40
      vertex 7 40 40
    endloop
  endfacet
  facet normal 0 1 0
    outer loop
      vertex 2.5 40 10
      vertex 0 40 40
      vertex 2.5 40 40
    endloop
  endfacet
  facet normal 0 0 1
    outer loop
      vertex 6 2.5 40
      vertex 0 0 40
      vertex 40 0 40
    endloop
  endfacet
  facet normal 0 0 1
    outer loop
      vertex 5 40 40
      vertex 6 2.5 40
      vertex 6 5 40
    endloop
  endfacet
  facet normal 0 0 1
    outer loop
      vertex 6 5 40
      vertex 40 5 40
      vertex 7 7 40
    endloop
  endfacet
  facet normal 0 0 1
    outer loop
      vertex 5 6 40
      vertex 0 0 40
      vertex 6 2.5 40
    endloop
  endfacet
  facet normal 0 0 1
    outer loop
      vertex 2.5 6 40
      vertex 2.5 40 40
      vertex 0 40 40
    endloop
  endfacet
  facet normal 0 0 1
    outer loop
      vertex 5 40 40
      vertex 6 5 40
      vertex 7 7 40
    endloop
  endfacet
  facet normal 0 0 1
    outer loop
      vertex 2.5 6 40
      vertex 0 0 40
      vertex 5 6 40
    endloop
  endfacet
  facet normal 0 0 1
    outer loop
      vertex 0 40 40
      vertex 0 0 40
      vertex 2.5 6 40
    endloop
  endfacet
  facet normal 0 0 1
    outer loop
      vertex 7 7 40
      vertex 7 40 40
      vertex 5 40 40
    endloop
  endfacet
  facet normal 0 0 1
    outer loop
      vertex 40 7 40
      vertex 7 7 40
      vertex 40 5 40
    endloop
  endfacet
  facet normal 0 0 1
    outer loop
      vertex 40 2.5 40
      vertex 6 2.5 40
      vertex 40 0 40
    endloop
  endfacet
  facet normal 0 0 1
    outer loop
      vertex 5 40 40
      vertex 5 6 40
      vertex 6 2.5 40
    endloop
  endfacet
  facet normal 1 0 0
    outer loop
      vertex 40 5 10
      vertex 40 0 0
      vertex 40 7 0
    endloop
  endfacet
  facet normal 1 0 0
    outer loop
      vertex 40 2.5 10
      vertex 40 2.5 40
      vertex 40 0 40
    endloop
  endfacet
  facet normal 1 0 0
    outer loop
      vertex 40 7 40
      vertex 40 5 40
      vertex 40 7 0
    endloop
  endfacet
  facet normal 1 0 0
    outer loop
      vertex 40 2.5 10
      vertex 40 0 0
      vertex 40 5 10
    endloop
  endfacet
  facet normal 1 0 0
    outer loop
      vertex 40 0 40
      vertex 40 0 0
      vertex 40 2.5 10
    endloop
  endfacet
  facet normal 1 0 0
    outer loop
      vertex 40 5 40
      vertex 40 5 10
      vertex 40 7 0
    endloop
  endfacet
  facet normal 0 1 0
    outer loop
      vertex 40 7 40
      vertex 40 7 0
      vertex 7 7 40
    endloop
  endfacet
  facet normal 0 1 0
    outer loop
      vertex 7 7 40
      vertex 40 7 0
      vertex 7 7 0
    endloop
  endfacet
  facet normal 1 0 0
    outer loop
      vertex 7 40 0
      vertex 7 40 40
      vertex 7 7 40
    endloop
  endfacet
  facet normal 1 0 0
    outer loop
      vertex 7 7 0
      vertex 7 40 0
      vertex 7 7 40
    endloop
  endfacet
  facet normal -1 0 0
    outer loop
      vertex 5 40 40
      vertex 5 40 10
      vertex 5 6 40
    endloop
  endfacet
  facet normal -1 0 0
    outer loop
      vertex 5 6 40
      vertex 5 40 10
      vertex 5 6 10
    endloop
  endfacet
  facet normal 0 0 1
    outer loop
      vertex 5 6 10
      vertex 5 40 10
      vertex 2.5 40 10
    endloop
  endfacet
  facet normal 0 0 1
    outer loop
      vertex 2.5 6 10
      vertex 5 6 10
      vertex 2.5 40 10
    endloop
  endfacet
  facet normal 1 0 0
    outer loop
      vertex 2.5 40 10
      vertex 2.5 40 40
      vertex 2.5 6 40
    endloop
  endfacet
  facet normal 1 0 0
    outer loop
      vertex 2.5 6 10
      vertex 2.5 40 10
      vertex 2.5 6 40
    endloop
  endfacet
  facet normal 0 1 0
    outer loop
      vertex 5 6 40
      vertex 5 6 10
      vertex 2.5 6 40
    endloop
  endfacet
  facet normal 0 1 0
    outer loop
      vertex 2.5 6 40
      vertex 5 6 10
      vertex 2.5 6 10
    endloop
  endfacet
  facet normal 0 -1 0
    outer loop
      vertex 40 5 10
      vertex 40 5 40
      vertex 6 5 40
    endloop
  endfacet
  facet normal 0 -1 0
    outer loop
      vertex 6 5 10
      vertex 40 5 10
      vertex 6 5 40
    endloop
  endfacet
  facet normal 1 0 0
    outer loop
      vertex 6 5 10
      vertex 6 5 40
      vertex 6 2.5 40
    endloop
  endfacet
  facet normal 1 0 0
    outer loop
      vertex 6 2.5 10
      vertex 6 5 10
      vertex 6 2.5 40
    endloop
  endfacet
  facet normal 0 1 0
    outer loop
      vertex 40 2.5 40
      vertex 40 2.5 10
      vertex 6 2.5 40
    endloop
  endfacet
  facet normal 0 1 0
    outer loop
      vertex 6 2.5 40
      vertex 40 2.5 10
      vertex 6 2.5 10
    endloop
  endfacet
  facet normal 0 0 1
    outer loop
      vertex 40 2.5 10
      vertex 40 5 10
      vertex 6 5 10
    endloop
  endfacet
  facet normal 0 0 1
    outer loop
      vertex 6 2.5 10
      vertex 40 2.5 10
      vertex 6 5 10
    endloop
  endfacet
endsolid OpenSCAD_Model
