  0
SECTION
  2
BLOCKS
  0
ENDSEC
  0
SECTION
  2
ENTITIES
  0
LINE
  8
0
 10
-170.25
 11
-170.25
 20
-145.11
 21
145.11
  0
LINE
  8
0
 10
-170.25
 11
-167.909
 20
145.11
 21
145.11
  0
LINE
  8
0
 10
-167.909
 11
-163.82
 20
145.11
 21
145.979
  0
LINE
  8
0
 10
-163.82
 11
-160
 20
145.979
 21
147.679
  0
LINE
  8
0
 10
-160
 11
-156.617
 20
147.679
 21
150.137
  0
LINE
  8
0
 10
-156.617
 11
-153.82
 20
150.137
 21
153.244
  0
LINE
  8
0
 10
-153.82
 11
-151.729
 20
153.244
 21
156.865
  0
LINE
  8
0
 10
-151.729
 11
-150.437
 20
156.865
 21
160.842
  0
LINE
  8
0
 10
-150.437
 11
-150
 20
160.842
 21
165
  0
LINE
  8
0
 10
-150
 11
54.712
 20
165
 21
165
  0
LINE
  8
0
 10
54.712
 11
115
 20
165
 21
130.192
  0
LINE
  8
0
 10
115
 11
115
 20
130.192
 21
-130.192
  0
LINE
  8
0
 10
115
 11
54.712
 20
-130.192
 21
-165
  0
LINE
  8
0
 10
54.712
 11
-150
 20
-165
 21
-165
  0
LINE
  8
0
 10
-150
 11
-150.437
 20
-165
 21
-160.842
  0
LINE
  8
0
 10
-150.437
 11
-151.729
 20
-160.842
 21
-156.865
  0
LINE
  8
0
 10
-151.729
 11
-153.82
 20
-156.865
 21
-153.244
  0
LINE
  8
0
 10
-153.82
 11
-156.617
 20
-153.244
 21
-150.137
  0
LINE
  8
0
 10
-156.617
 11
-160
 20
-150.137
 21
-147.679
  0
LINE
  8
0
 10
-160
 11
-163.82
 20
-147.679
 21
-145.979
  0
LINE
  8
0
 10
-163.82
 11
-167.909
 20
-145.979
 21
-145.11
  0
LINE
  8
0
 10
-167.909
 11
-170.25
 20
-145.11
 21
-145.11
  0
LINE
  8
0
 10
-165
 11
-164.732
 20
-30
 21
-29
  0
LINE
  8
0
 10
-164.732
 11
-164
 20
-29
 21
-28.268
  0
LINE
  8
0
 10
-164
 11
-163
 20
-28.268
 21
-28
  0
LINE
  8
0
 10
-163
 11
-162
 20
-28
 21
-28.268
  0
LINE
  8
0
 10
-162
 11
-161.268
 20
-28.268
 21
-29
  0
LINE
  8
0
 10
-161.268
 11
-161
 20
-29
 21
-30
  0
LINE
  8
0
 10
-161
 11
-161.268
 20
-30
 21
-31
  0
LINE
  8
0
 10
-161.268
 11
-162
 20
-31
 21
-31.732
  0
LINE
  8
0
 10
-162
 11
-163
 20
-31.732
 21
-32
  0
LINE
  8
0
 10
-163
 11
-164
 20
-32
 21
-31.732
  0
LINE
  8
0
 10
-164
 11
-164.732
 20
-31.732
 21
-31
  0
LINE
  8
0
 10
-164.732
 11
-165
 20
-31
 21
-30
  0
LINE
  8
0
 10
-165
 11
-164.732
 20
30
 21
31
  0
LINE
  8
0
 10
-164.732
 11
-164
 20
31
 21
31.732
  0
LINE
  8
0
 10
-164
 11
-163
 20
31.732
 21
32
  0
LINE
  8
0
 10
-163
 11
-162
 20
32
 21
31.732
  0
LINE
  8
0
 10
-162
 11
-161.268
 20
31.732
 21
31
  0
LINE
  8
0
 10
-161.268
 11
-161
 20
31
 21
30
  0
LINE
  8
0
 10
-161
 11
-161.268
 20
30
 21
29
  0
LINE
  8
0
 10
-161.268
 11
-162
 20
29
 21
28.268
  0
LINE
  8
0
 10
-162
 11
-163
 20
28.268
 21
28
  0
LINE
  8
0
 10
-163
 11
-164
 20
28
 21
28.268
  0
LINE
  8
0
 10
-164
 11
-164.732
 20
28.268
 21
29
  0
LINE
  8
0
 10
-164.732
 11
-165
 20
29
 21
30
  0
LINE
  8
0
 10
-161.95
 11
-161.564
 20
-133.695
 21
-132.003
  0
LINE
  8
0
 10
-161.564
 11
-160
 20
-132.003
 21
-131.25
  0
LINE
  8
0
 10
-160
 11
-158.436
 20
-131.25
 21
-132.003
  0
LINE
  8
0
 10
-158.436
 11
-158.05
 20
-132.003
 21
-133.695
  0
LINE
  8
0
 10
-158.05
 11
-159.132
 20
-133.695
 21
-135.052
  0
LINE
  8
0
 10
-159.132
 11
-160.868
 20
-135.052
 21
-135.052
  0
LINE
  8
0
 10
-160.868
 11
-161.95
 20
-135.052
 21
-133.695
  0
LINE
  8
0
 10
-161.95
 11
-161.564
 20
-101.945
 21
-100.253
  0
LINE
  8
0
 10
-161.564
 11
-160
 20
-100.253
 21
-99.5
  0
LINE
  8
0
 10
-160
 11
-158.436
 20
-99.5
 21
-100.253
  0
LINE
  8
0
 10
-158.436
 11
-158.05
 20
-100.253
 21
-101.945
  0
LINE
  8
0
 10
-158.05
 11
-159.132
 20
-101.945
 21
-103.302
  0
LINE
  8
0
 10
-159.132
 11
-160.868
 20
-103.302
 21
-103.302
  0
LINE
  8
0
 10
-160.868
 11
-161.95
 20
-103.302
 21
-101.945
  0
LINE
  8
0
 10
-161.95
 11
-160.868
 20
101.945
 21
103.302
  0
LINE
  8
0
 10
-160.868
 11
-159.132
 20
103.302
 21
103.302
  0
LINE
  8
0
 10
-159.132
 11
-158.05
 20
103.302
 21
101.945
  0
LINE
  8
0
 10
-158.05
 11
-158.436
 20
101.945
 21
100.253
  0
LINE
  8
0
 10
-158.436
 11
-160
 20
100.253
 21
99.5
  0
LINE
  8
0
 10
-160
 11
-161.564
 20
99.5
 21
100.253
  0
LINE
  8
0
 10
-161.564
 11
-161.95
 20
100.253
 21
101.945
  0
LINE
  8
0
 10
-161.95
 11
-160.868
 20
133.695
 21
135.052
  0
LINE
  8
0
 10
-160.868
 11
-159.132
 20
135.052
 21
135.052
  0
LINE
  8
0
 10
-159.132
 11
-158.05
 20
135.052
 21
133.695
  0
LINE
  8
0
 10
-158.05
 11
-158.436
 20
133.695
 21
132.003
  0
LINE
  8
0
 10
-158.436
 11
-160
 20
132.003
 21
131.25
  0
LINE
  8
0
 10
-160
 11
-161.564
 20
131.25
 21
132.003
  0
LINE
  8
0
 10
-161.564
 11
-161.95
 20
132.003
 21
133.695
  0
LINE
  8
0
 10
-140.052
 11
-140.052
 20
-155.868
 21
-154.132
  0
LINE
  8
0
 10
-140.052
 11
-138.695
 20
-154.132
 21
-153.05
  0
LINE
  8
0
 10
-138.695
 11
-137.003
 20
-153.05
 21
-153.436
  0
LINE
  8
0
 10
-137.003
 11
-136.25
 20
-153.436
 21
-155
  0
LINE
  8
0
 10
-136.25
 11
-137.003
 20
-155
 21
-156.564
  0
LINE
  8
0
 10
-137.003
 11
-138.695
 20
-156.564
 21
-156.95
  0
LINE
  8
0
 10
-138.695
 11
-140.052
 20
-156.95
 21
-155.868
  0
LINE
  8
0
 10
-140.052
 11
-140.052
 20
154.132
 21
155.868
  0
LINE
  8
0
 10
-140.052
 11
-138.695
 20
155.868
 21
156.95
  0
LINE
  8
0
 10
-138.695
 11
-137.003
 20
156.95
 21
156.564
  0
LINE
  8
0
 10
-137.003
 11
-136.25
 20
156.564
 21
155
  0
LINE
  8
0
 10
-136.25
 11
-137.003
 20
155
 21
153.436
  0
LINE
  8
0
 10
-137.003
 11
-138.695
 20
153.436
 21
153.05
  0
LINE
  8
0
 10
-138.695
 11
-140.052
 20
153.05
 21
154.132
  0
LINE
  8
0
 10
-129
 11
-128.732
 20
-30
 21
-29
  0
LINE
  8
0
 10
-128.732
 11
-128
 20
-29
 21
-28.268
  0
LINE
  8
0
 10
-128
 11
-127
 20
-28.268
 21
-28
  0
LINE
  8
0
 10
-127
 11
-126
 20
-28
 21
-28.268
  0
LINE
  8
0
 10
-126
 11
-125.268
 20
-28.268
 21
-29
  0
LINE
  8
0
 10
-125.268
 11
-125
 20
-29
 21
-30
  0
LINE
  8
0
 10
-125
 11
-125.268
 20
-30
 21
-31
  0
LINE
  8
0
 10
-125.268
 11
-126
 20
-31
 21
-31.732
  0
LINE
  8
0
 10
-126
 11
-127
 20
-31.732
 21
-32
  0
LINE
  8
0
 10
-127
 11
-128
 20
-32
 21
-31.732
  0
LINE
  8
0
 10
-128
 11
-128.732
 20
-31.732
 21
-31
  0
LINE
  8
0
 10
-128.732
 11
-129
 20
-31
 21
-30
  0
LINE
  8
0
 10
-129
 11
-128.732
 20
30
 21
31
  0
LINE
  8
0
 10
-128.732
 11
-128
 20
31
 21
31.732
  0
LINE
  8
0
 10
-128
 11
-127
 20
31.732
 21
32
  0
LINE
  8
0
 10
-127
 11
-126
 20
32
 21
31.732
  0
LINE
  8
0
 10
-126
 11
-125.268
 20
31.732
 21
31
  0
LINE
  8
0
 10
-125.268
 11
-125
 20
31
 21
30
  0
LINE
  8
0
 10
-125
 11
-125.268
 20
30
 21
29
  0
LINE
  8
0
 10
-125.268
 11
-126
 20
29
 21
28.268
  0
LINE
  8
0
 10
-126
 11
-127
 20
28.268
 21
28
  0
LINE
  8
0
 10
-127
 11
-128
 20
28
 21
28.268
  0
LINE
  8
0
 10
-128
 11
-128.732
 20
28.268
 21
29
  0
LINE
  8
0
 10
-128.732
 11
-129
 20
29
 21
30
  0
LINE
  8
0
 10
-108.302
 11
-108.302
 20
-155.868
 21
-154.132
  0
LINE
  8
0
 10
-108.302
 11
-106.945
 20
-154.132
 21
-153.05
  0
LINE
  8
0
 10
-106.945
 11
-105.253
 20
-153.05
 21
-153.436
  0
LINE
  8
0
 10
-105.253
 11
-104.5
 20
-153.436
 21
-155
  0
LINE
  8
0
 10
-104.5
 11
-105.253
 20
-155
 21
-156.564
  0
LINE
  8
0
 10
-105.253
 11
-106.945
 20
-156.564
 21
-156.95
  0
LINE
  8
0
 10
-106.945
 11
-108.302
 20
-156.95
 21
-155.868
  0
LINE
  8
0
 10
-108.302
 11
-108.302
 20
154.132
 21
155.868
  0
LINE
  8
0
 10
-108.302
 11
-106.945
 20
155.868
 21
156.95
  0
LINE
  8
0
 10
-106.945
 11
-105.253
 20
156.95
 21
156.564
  0
LINE
  8
0
 10
-105.253
 11
-104.5
 20
156.564
 21
155
  0
LINE
  8
0
 10
-104.5
 11
-105.253
 20
155
 21
153.436
  0
LINE
  8
0
 10
-105.253
 11
-106.945
 20
153.436
 21
153.05
  0
LINE
  8
0
 10
-106.945
 11
-108.302
 20
153.05
 21
154.132
  0
LINE
  8
0
 10
-106.5
 11
-105.747
 20
-104.5
 21
-102.936
  0
LINE
  8
0
 10
-105.747
 11
-104.055
 20
-102.936
 21
-102.55
  0
LINE
  8
0
 10
-104.055
 11
-102.698
 20
-102.55
 21
-103.632
  0
LINE
  8
0
 10
-102.698
 11
-102.698
 20
-103.632
 21
-105.368
  0
LINE
  8
0
 10
-102.698
 11
-104.055
 20
-105.368
 21
-106.45
  0
LINE
  8
0
 10
-104.055
 11
-105.747
 20
-106.45
 21
-106.064
  0
LINE
  8
0
 10
-105.747
 11
-106.5
 20
-106.064
 21
-104.5
  0
LINE
  8
0
 10
-106.45
 11
-106.064
 20
104.055
 21
105.747
  0
LINE
  8
0
 10
-106.064
 11
-104.5
 20
105.747
 21
106.5
  0
LINE
  8
0
 10
-104.5
 11
-102.936
 20
106.5
 21
105.747
  0
LINE
  8
0
 10
-102.936
 11
-102.55
 20
105.747
 21
104.055
  0
LINE
  8
0
 10
-102.55
 11
-103.632
 20
104.055
 21
102.698
  0
LINE
  8
0
 10
-103.632
 11
-105.368
 20
102.698
 21
102.698
  0
LINE
  8
0
 10
-105.368
 11
-106.45
 20
102.698
 21
104.055
  0
LINE
  8
0
 10
-80
 11
-79.89
 20
0
 21
4.187
  0
LINE
  8
0
 10
-79.89
 11
-79.562
 20
4.187
 21
8.362
  0
LINE
  8
0
 10
-79.562
 11
-79.015
 20
8.362
 21
12.515
  0
LINE
  8
0
 10
-79.015
 11
-78.252
 20
12.515
 21
16.633
  0
LINE
  8
0
 10
-78.252
 11
-77.274
 20
16.633
 21
20.706
  0
LINE
  8
0
 10
-77.274
 11
-76.085
 20
20.706
 21
24.721
  0
LINE
  8
0
 10
-76.085
 11
-74.686
 20
24.721
 21
28.669
  0
LINE
  8
0
 10
-74.686
 11
-73.084
 20
28.669
 21
32.539
  0
LINE
  8
0
 10
-73.084
 11
-71.281
 20
32.539
 21
36.319
  0
LINE
  8
0
 10
-71.281
 11
-69.282
 20
36.319
 21
40
  0
LINE
  8
0
 10
-69.282
 11
-67.094
 20
40
 21
43.571
  0
LINE
  8
0
 10
-67.094
 11
-64.721
 20
43.571
 21
47.023
  0
LINE
  8
0
 10
-64.721
 11
-62.172
 20
47.023
 21
50.346
  0
LINE
  8
0
 10
-62.172
 11
-59.452
 20
50.346
 21
53.53
  0
LINE
  8
0
 10
-59.452
 11
-56.569
 20
53.53
 21
56.569
  0
LINE
  8
0
 10
-56.569
 11
-53.53
 20
56.569
 21
59.452
  0
LINE
  8
0
 10
-53.53
 11
-50.346
 20
59.452
 21
62.172
  0
LINE
  8
0
 10
-50.346
 11
-47.023
 20
62.172
 21
64.721
  0
LINE
  8
0
 10
-47.023
 11
-43.571
 20
64.721
 21
67.094
  0
LINE
  8
0
 10
-43.571
 11
-40
 20
67.094
 21
69.282
  0
LINE
  8
0
 10
-40
 11
-36.319
 20
69.282
 21
71.281
  0
LINE
  8
0
 10
-36.319
 11
-35.592
 20
71.281
 21
71.628
  0
LINE
  8
0
 10
-35.592
 11
-33.872
 20
71.628
 21
71.962
  0
LINE
  8
0
 10
-33.872
 11
-31.781
 20
71.962
 21
71.925
  0
LINE
  8
0
 10
-31.781
 11
-29.744
 20
71.925
 21
71.455
  0
LINE
  8
0
 10
-29.744
 11
-27.85
 20
71.455
 21
70.572
  0
LINE
  8
0
 10
-27.85
 11
-26.18
 20
70.572
 21
69.314
  0
LINE
  8
0
 10
-26.18
 11
-25.473
 20
69.314
 21
68.5
  0
LINE
  8
0
 10
-25.473
 11
-24.135
 20
68.5
 21
66.183
  0
LINE
  8
0
 10
-24.135
 11
-22.037
 20
66.183
 21
63.853
  0
LINE
  8
0
 10
-22.037
 11
-19.5
 20
63.853
 21
62.01
  0
LINE
  8
0
 10
-19.5
 11
-16.635
 20
62.01
 21
60.734
  0
LINE
  8
0
 10
-16.635
 11
-13.568
 20
60.734
 21
60.082
  0
LINE
  8
0
 10
-13.568
 11
-10.432
 20
60.082
 21
60.082
  0
LINE
  8
0
 10
-10.432
 11
-7.365
 20
60.082
 21
60.734
  0
LINE
  8
0
 10
-7.365
 11
-4.5
 20
60.734
 21
62.01
  0
LINE
  8
0
 10
-4.5
 11
-1.963
 20
62.01
 21
63.853
  0
LINE
  8
0
 10
-1.963
 11
0.135
 20
63.853
 21
66.183
  0
LINE
  8
0
 10
0.135
 11
1.703
 20
66.183
 21
68.899
  0
LINE
  8
0
 10
1.703
 11
2.672
 20
68.899
 21
71.881
  0
LINE
  8
0
 10
2.672
 11
2.819
 20
71.881
 21
73.28
  0
LINE
  8
0
 10
2.819
 11
3.14
 20
73.28
 21
74
  0
LINE
  8
0
 10
3.14
 11
4.369
 20
74
 21
75.691
  0
LINE
  8
0
 10
4.369
 11
5.922
 20
75.691
 21
77.09
  0
LINE
  8
0
 10
5.922
 11
7.733
 20
77.09
 21
78.135
  0
LINE
  8
0
 10
7.733
 11
9.721
 20
78.135
 21
78.781
  0
LINE
  8
0
 10
9.721
 11
11.8
 20
78.781
 21
79
  0
LINE
  8
0
 10
11.8
 11
11.8
 20
79
 21
79.109
  0
LINE
  8
0
 10
11.8
 11
12.515
 20
79.109
 21
79.015
  0
LINE
  8
0
 10
12.515
 11
16.633
 20
79.015
 21
78.252
  0
LINE
  8
0
 10
16.633
 11
20.706
 20
78.252
 21
77.274
  0
LINE
  8
0
 10
20.706
 11
24.721
 20
77.274
 21
76.085
  0
LINE
  8
0
 10
24.721
 11
28.669
 20
76.085
 21
74.686
  0
LINE
  8
0
 10
28.669
 11
32.539
 20
74.686
 21
73.084
  0
LINE
  8
0
 10
32.539
 11
36.319
 20
73.084
 21
71.281
  0
LINE
  8
0
 10
36.319
 11
40
 20
71.281
 21
69.282
  0
LINE
  8
0
 10
40
 11
43.571
 20
69.282
 21
67.094
  0
LINE
  8
0
 10
43.571
 11
47.023
 20
67.094
 21
64.721
  0
LINE
  8
0
 10
47.023
 11
50.346
 20
64.721
 21
62.172
  0
LINE
  8
0
 10
50.346
 11
53.53
 20
62.172
 21
59.452
  0
LINE
  8
0
 10
53.53
 11
56.569
 20
59.452
 21
56.569
  0
LINE
  8
0
 10
56.569
 11
59.452
 20
56.569
 21
53.53
  0
LINE
  8
0
 10
59.452
 11
62.172
 20
53.53
 21
50.346
  0
LINE
  8
0
 10
62.172
 11
64.721
 20
50.346
 21
47.023
  0
LINE
  8
0
 10
64.721
 11
67.094
 20
47.023
 21
43.571
  0
LINE
  8
0
 10
67.094
 11
69.282
 20
43.571
 21
40
  0
LINE
  8
0
 10
69.282
 11
71.281
 20
40
 21
36.319
  0
LINE
  8
0
 10
71.281
 11
73.084
 20
36.319
 21
32.539
  0
LINE
  8
0
 10
73.084
 11
74.686
 20
32.539
 21
28.669
  0
LINE
  8
0
 10
74.686
 11
76.085
 20
28.669
 21
24.721
  0
LINE
  8
0
 10
76.085
 11
77.274
 20
24.721
 21
20.706
  0
LINE
  8
0
 10
77.274
 11
78.252
 20
20.706
 21
16.633
  0
LINE
  8
0
 10
78.252
 11
79.015
 20
16.633
 21
12.515
  0
LINE
  8
0
 10
79.015
 11
79.562
 20
12.515
 21
8.362
  0
LINE
  8
0
 10
79.562
 11
79.89
 20
8.362
 21
4.187
  0
LINE
  8
0
 10
79.89
 11
80
 20
4.187
 21
0
  0
LINE
  8
0
 10
80
 11
79.89
 20
0
 21
-4.187
  0
LINE
  8
0
 10
79.89
 11
79.562
 20
-4.187
 21
-8.362
  0
LINE
  8
0
 10
79.562
 11
79.015
 20
-8.362
 21
-12.515
  0
LINE
  8
0
 10
79.015
 11
78.252
 20
-12.515
 21
-16.633
  0
LINE
  8
0
 10
78.252
 11
77.274
 20
-16.633
 21
-20.706
  0
LINE
  8
0
 10
77.274
 11
76.085
 20
-20.706
 21
-24.721
  0
LINE
  8
0
 10
76.085
 11
74.686
 20
-24.721
 21
-28.669
  0
LINE
  8
0
 10
74.686
 11
73.084
 20
-28.669
 21
-32.539
  0
LINE
  8
0
 10
73.084
 11
71.281
 20
-32.539
 21
-36.319
  0
LINE
  8
0
 10
71.281
 11
69.282
 20
-36.319
 21
-40
  0
LINE
  8
0
 10
69.282
 11
67.094
 20
-40
 21
-43.571
  0
LINE
  8
0
 10
67.094
 11
64.721
 20
-43.571
 21
-47.023
  0
LINE
  8
0
 10
64.721
 11
62.172
 20
-47.023
 21
-50.346
  0
LINE
  8
0
 10
62.172
 11
59.452
 20
-50.346
 21
-53.53
  0
LINE
  8
0
 10
59.452
 11
56.569
 20
-53.53
 21
-56.569
  0
LINE
  8
0
 10
56.569
 11
53.53
 20
-56.569
 21
-59.452
  0
LINE
  8
0
 10
53.53
 11
50.346
 20
-59.452
 21
-62.172
  0
LINE
  8
0
 10
50.346
 11
47.023
 20
-62.172
 21
-64.721
  0
LINE
  8
0
 10
47.023
 11
43.571
 20
-64.721
 21
-67.094
  0
LINE
  8
0
 10
43.571
 11
40
 20
-67.094
 21
-69.282
  0
LINE
  8
0
 10
40
 11
36.319
 20
-69.282
 21
-71.281
  0
LINE
  8
0
 10
36.319
 11
32.539
 20
-71.281
 21
-73.084
  0
LINE
  8
0
 10
32.539
 11
28.669
 20
-73.084
 21
-74.686
  0
LINE
  8
0
 10
28.669
 11
24.721
 20
-74.686
 21
-76.085
  0
LINE
  8
0
 10
24.721
 11
20.706
 20
-76.085
 21
-77.274
  0
LINE
  8
0
 10
20.706
 11
16.633
 20
-77.274
 21
-78.252
  0
LINE
  8
0
 10
16.633
 11
12.515
 20
-78.252
 21
-79.015
  0
LINE
  8
0
 10
12.515
 11
8.362
 20
-79.015
 21
-79.562
  0
LINE
  8
0
 10
8.362
 11
4.187
 20
-79.562
 21
-79.89
  0
LINE
  8
0
 10
4.187
 11
0
 20
-79.89
 21
-80
  0
LINE
  8
0
 10
0
 11
-4.187
 20
-80
 21
-79.89
  0
LINE
  8
0
 10
-4.187
 11
-8.362
 20
-79.89
 21
-79.562
  0
LINE
  8
0
 10
-8.362
 11
-12.515
 20
-79.562
 21
-79.015
  0
LINE
  8
0
 10
-12.515
 11
-16.633
 20
-79.015
 21
-78.252
  0
LINE
  8
0
 10
-16.633
 11
-20.706
 20
-78.252
 21
-77.274
  0
LINE
  8
0
 10
-20.706
 11
-24.721
 20
-77.274
 21
-76.085
  0
LINE
  8
0
 10
-24.721
 11
-28.669
 20
-76.085
 21
-74.686
  0
LINE
  8
0
 10
-28.669
 11
-32.539
 20
-74.686
 21
-73.084
  0
LINE
  8
0
 10
-32.539
 11
-36.319
 20
-73.084
 21
-71.281
  0
LINE
  8
0
 10
-36.319
 11
-40
 20
-71.281
 21
-69.282
  0
LINE
  8
0
 10
-40
 11
-43.571
 20
-69.282
 21
-67.094
  0
LINE
  8
0
 10
-43.571
 11
-47.023
 20
-67.094
 21
-64.721
  0
LINE
  8
0
 10
-47.023
 11
-50.346
 20
-64.721
 21
-62.172
  0
LINE
  8
0
 10
-50.346
 11
-53.53
 20
-62.172
 21
-59.452
  0
LINE
  8
0
 10
-53.53
 11
-56.569
 20
-59.452
 21
-56.569
  0
LINE
  8
0
 10
-56.569
 11
-59.452
 20
-56.569
 21
-53.53
  0
LINE
  8
0
 10
-59.452
 11
-62.172
 20
-53.53
 21
-50.346
  0
LINE
  8
0
 10
-62.172
 11
-64.721
 20
-50.346
 21
-47.023
  0
LINE
  8
0
 10
-64.721
 11
-67.094
 20
-47.023
 21
-43.571
  0
LINE
  8
0
 10
-67.094
 11
-69.282
 20
-43.571
 21
-40
  0
LINE
  8
0
 10
-69.282
 11
-71.281
 20
-40
 21
-36.319
  0
LINE
  8
0
 10
-71.281
 11
-73.084
 20
-36.319
 21
-32.539
  0
LINE
  8
0
 10
-73.084
 11
-74.686
 20
-32.539
 21
-28.669
  0
LINE
  8
0
 10
-74.686
 11
-76.085
 20
-28.669
 21
-24.721
  0
LINE
  8
0
 10
-76.085
 11
-77.274
 20
-24.721
 21
-20.706
  0
LINE
  8
0
 10
-77.274
 11
-78.252
 20
-20.706
 21
-16.633
  0
LINE
  8
0
 10
-78.252
 11
-79.015
 20
-16.633
 21
-12.515
  0
LINE
  8
0
 10
-79.015
 11
-79.562
 20
-12.515
 21
-8.362
  0
LINE
  8
0
 10
-79.562
 11
-79.89
 20
-8.362
 21
-4.187
  0
LINE
  8
0
 10
-79.89
 11
-80
 20
-4.187
 21
0
  0
LINE
  8
0
 10
-62.189
 11
-62.189
 20
80.241
 21
80.659
  0
LINE
  8
0
 10
-62.189
 11
-62.102
 20
80.659
 21
81.068
  0
LINE
  8
0
 10
-62.102
 11
-61.932
 20
81.068
 21
81.45
  0
LINE
  8
0
 10
-61.932
 11
-61.686
 20
81.45
 21
81.788
  0
LINE
  8
0
 10
-61.686
 11
-61.376
 20
81.788
 21
82.068
  0
LINE
  8
0
 10
-61.376
 11
-61.013
 20
82.068
 21
82.277
  0
LINE
  8
0
 10
-61.013
 11
-60.616
 20
82.277
 21
82.406
  0
LINE
  8
0
 10
-60.616
 11
-60.2
 20
82.406
 21
82.45
  0
LINE
  8
0
 10
-60.2
 11
-59.784
 20
82.45
 21
82.406
  0
LINE
  8
0
 10
-59.784
 11
-59.387
 20
82.406
 21
82.277
  0
LINE
  8
0
 10
-59.387
 11
-59.024
 20
82.277
 21
82.068
  0
LINE
  8
0
 10
-59.024
 11
-58.714
 20
82.068
 21
81.788
  0
LINE
  8
0
 10
-58.714
 11
-58.468
 20
81.788
 21
81.45
  0
LINE
  8
0
 10
-58.468
 11
-58.298
 20
81.45
 21
81.068
  0
LINE
  8
0
 10
-58.298
 11
-58.211
 20
81.068
 21
80.659
  0
LINE
  8
0
 10
-58.211
 11
-58.211
 20
80.659
 21
80.241
  0
LINE
  8
0
 10
-58.211
 11
-58.298
 20
80.241
 21
79.832
  0
LINE
  8
0
 10
-58.298
 11
-58.468
 20
79.832
 21
79.45
  0
LINE
  8
0
 10
-58.468
 11
-58.714
 20
79.45
 21
79.112
  0
LINE
  8
0
 10
-58.714
 11
-59.024
 20
79.112
 21
78.832
  0
LINE
  8
0
 10
-59.024
 11
-59.387
 20
78.832
 21
78.623
  0
LINE
  8
0
 10
-59.387
 11
-59.784
 20
78.623
 21
78.494
  0
LINE
  8
0
 10
-59.784
 11
-60.2
 20
78.494
 21
78.45
  0
LINE
  8
0
 10
-60.2
 11
-60.616
 20
78.45
 21
78.494
  0
LINE
  8
0
 10
-60.616
 11
-61.013
 20
78.494
 21
78.623
  0
LINE
  8
0
 10
-61.013
 11
-61.376
 20
78.623
 21
78.832
  0
LINE
  8
0
 10
-61.376
 11
-61.686
 20
78.832
 21
79.112
  0
LINE
  8
0
 10
-61.686
 11
-61.932
 20
79.112
 21
79.45
  0
LINE
  8
0
 10
-61.932
 11
-62.102
 20
79.45
 21
79.832
  0
LINE
  8
0
 10
-62.102
 11
-62.189
 20
79.832
 21
80.241
  0
LINE
  8
0
 10
-62.189
 11
-62.189
 20
155.171
 21
155.589
  0
LINE
  8
0
 10
-62.189
 11
-62.102
 20
155.589
 21
155.998
  0
LINE
  8
0
 10
-62.102
 11
-61.932
 20
155.998
 21
156.38
  0
LINE
  8
0
 10
-61.932
 11
-61.686
 20
156.38
 21
156.718
  0
LINE
  8
0
 10
-61.686
 11
-61.376
 20
156.718
 21
156.998
  0
LINE
  8
0
 10
-61.376
 11
-61.013
 20
156.998
 21
157.207
  0
LINE
  8
0
 10
-61.013
 11
-60.616
 20
157.207
 21
157.336
  0
LINE
  8
0
 10
-60.616
 11
-60.2
 20
157.336
 21
157.38
  0
LINE
  8
0
 10
-60.2
 11
-59.784
 20
157.38
 21
157.336
  0
LINE
  8
0
 10
-59.784
 11
-59.387
 20
157.336
 21
157.207
  0
LINE
  8
0
 10
-59.387
 11
-59.024
 20
157.207
 21
156.998
  0
LINE
  8
0
 10
-59.024
 11
-58.714
 20
156.998
 21
156.718
  0
LINE
  8
0
 10
-58.714
 11
-58.468
 20
156.718
 21
156.38
  0
LINE
  8
0
 10
-58.468
 11
-58.298
 20
156.38
 21
155.998
  0
LINE
  8
0
 10
-58.298
 11
-58.211
 20
155.998
 21
155.589
  0
LINE
  8
0
 10
-58.211
 11
-58.211
 20
155.589
 21
155.171
  0
LINE
  8
0
 10
-58.211
 11
-58.298
 20
155.171
 21
154.762
  0
LINE
  8
0
 10
-58.298
 11
-58.468
 20
154.762
 21
154.38
  0
LINE
  8
0
 10
-58.468
 11
-58.714
 20
154.38
 21
154.042
  0
LINE
  8
0
 10
-58.714
 11
-59.024
 20
154.042
 21
153.762
  0
LINE
  8
0
 10
-59.024
 11
-59.387
 20
153.762
 21
153.553
  0
LINE
  8
0
 10
-59.387
 11
-59.784
 20
153.553
 21
153.424
  0
LINE
  8
0
 10
-59.784
 11
-60.2
 20
153.424
 21
153.38
  0
LINE
  8
0
 10
-60.2
 11
-60.616
 20
153.38
 21
153.424
  0
LINE
  8
0
 10
-60.616
 11
-61.013
 20
153.424
 21
153.553
  0
LINE
  8
0
 10
-61.013
 11
-61.376
 20
153.553
 21
153.762
  0
LINE
  8
0
 10
-61.376
 11
-61.686
 20
153.762
 21
154.042
  0
LINE
  8
0
 10
-61.686
 11
-61.932
 20
154.042
 21
154.38
  0
LINE
  8
0
 10
-61.932
 11
-62.102
 20
154.38
 21
154.762
  0
LINE
  8
0
 10
-62.102
 11
-62.189
 20
154.762
 21
155.171
  0
LINE
  8
0
 10
-13.929
 11
-13.929
 20
155.171
 21
155.589
  0
LINE
  8
0
 10
-13.929
 11
-13.842
 20
155.589
 21
155.998
  0
LINE
  8
0
 10
-13.842
 11
-13.672
 20
155.998
 21
156.38
  0
LINE
  8
0
 10
-13.672
 11
-13.426
 20
156.38
 21
156.718
  0
LINE
  8
0
 10
-13.426
 11
-13.116
 20
156.718
 21
156.998
  0
LINE
  8
0
 10
-13.116
 11
-12.753
 20
156.998
 21
157.207
  0
LINE
  8
0
 10
-12.753
 11
-12.356
 20
157.207
 21
157.336
  0
LINE
  8
0
 10
-12.356
 11
-11.94
 20
157.336
 21
157.38
  0
LINE
  8
0
 10
-11.94
 11
-11.524
 20
157.38
 21
157.336
  0
LINE
  8
0
 10
-11.524
 11
-11.127
 20
157.336
 21
157.207
  0
LINE
  8
0
 10
-11.127
 11
-10.764
 20
157.207
 21
156.998
  0
LINE
  8
0
 10
-10.764
 11
-10.454
 20
156.998
 21
156.718
  0
LINE
  8
0
 10
-10.454
 11
-10.208
 20
156.718
 21
156.38
  0
LINE
  8
0
 10
-10.208
 11
-10.038
 20
156.38
 21
155.998
  0
LINE
  8
0
 10
-10.038
 11
-9.951
 20
155.998
 21
155.589
  0
LINE
  8
0
 10
-9.951
 11
-9.951
 20
155.589
 21
155.171
  0
LINE
  8
0
 10
-9.951
 11
-10.038
 20
155.171
 21
154.762
  0
LINE
  8
0
 10
-10.038
 11
-10.208
 20
154.762
 21
154.38
  0
LINE
  8
0
 10
-10.208
 11
-10.454
 20
154.38
 21
154.042
  0
LINE
  8
0
 10
-10.454
 11
-10.764
 20
154.042
 21
153.762
  0
LINE
  8
0
 10
-10.764
 11
-11.127
 20
153.762
 21
153.553
  0
LINE
  8
0
 10
-11.127
 11
-11.524
 20
153.553
 21
153.424
  0
LINE
  8
0
 10
-11.524
 11
-11.94
 20
153.424
 21
153.38
  0
LINE
  8
0
 10
-11.94
 11
-12.356
 20
153.38
 21
153.424
  0
LINE
  8
0
 10
-12.356
 11
-12.753
 20
153.424
 21
153.553
  0
LINE
  8
0
 10
-12.753
 11
-13.116
 20
153.553
 21
153.762
  0
LINE
  8
0
 10
-13.116
 11
-13.426
 20
153.762
 21
154.042
  0
LINE
  8
0
 10
-13.426
 11
-13.672
 20
154.042
 21
154.38
  0
LINE
  8
0
 10
-13.672
 11
-13.842
 20
154.38
 21
154.762
  0
LINE
  8
0
 10
-13.842
 11
-13.929
 20
154.762
 21
155.171
  0
LINE
  8
0
 10
-13.889
 11
-13.889
 20
73.891
 21
74.309
  0
LINE
  8
0
 10
-13.889
 11
-13.802
 20
74.309
 21
74.718
  0
LINE
  8
0
 10
-13.802
 11
-13.632
 20
74.718
 21
75.1
  0
LINE
  8
0
 10
-13.632
 11
-13.386
 20
75.1
 21
75.438
  0
LINE
  8
0
 10
-13.386
 11
-13.076
 20
75.438
 21
75.718
  0
LINE
  8
0
 10
-13.076
 11
-12.713
 20
75.718
 21
75.927
  0
LINE
  8
0
 10
-12.713
 11
-12.316
 20
75.927
 21
76.056
  0
LINE
  8
0
 10
-12.316
 11
-11.9
 20
76.056
 21
76.1
  0
LINE
  8
0
 10
-11.9
 11
-11.484
 20
76.1
 21
76.056
  0
LINE
  8
0
 10
-11.484
 11
-11.087
 20
76.056
 21
75.927
  0
LINE
  8
0
 10
-11.087
 11
-10.724
 20
75.927
 21
75.718
  0
LINE
  8
0
 10
-10.724
 11
-10.414
 20
75.718
 21
75.438
  0
LINE
  8
0
 10
-10.414
 11
-10.168
 20
75.438
 21
75.1
  0
LINE
  8
0
 10
-10.168
 11
-9.998
 20
75.1
 21
74.718
  0
LINE
  8
0
 10
-9.998
 11
-9.911
 20
74.718
 21
74.309
  0
LINE
  8
0
 10
-9.911
 11
-9.911
 20
74.309
 21
73.891
  0
LINE
  8
0
 10
-9.911
 11
-9.998
 20
73.891
 21
73.482
  0
LINE
  8
0
 10
-9.998
 11
-10.168
 20
73.482
 21
73.1
  0
LINE
  8
0
 10
-10.168
 11
-10.414
 20
73.1
 21
72.762
  0
LINE
  8
0
 10
-10.414
 11
-10.724
 20
72.762
 21
72.482
  0
LINE
  8
0
 10
-10.724
 11
-11.087
 20
72.482
 21
72.273
  0
LINE
  8
0
 10
-11.087
 11
-11.484
 20
72.273
 21
72.144
  0
LINE
  8
0
 10
-11.484
 11
-11.9
 20
72.144
 21
72.1
  0
LINE
  8
0
 10
-11.9
 11
-12.316
 20
72.1
 21
72.144
  0
LINE
  8
0
 10
-12.316
 11
-12.713
 20
72.144
 21
72.273
  0
LINE
  8
0
 10
-12.713
 11
-13.076
 20
72.273
 21
72.482
  0
LINE
  8
0
 10
-13.076
 11
-13.386
 20
72.482
 21
72.762
  0
LINE
  8
0
 10
-13.386
 11
-13.632
 20
72.762
 21
73.1
  0
LINE
  8
0
 10
-13.632
 11
-13.802
 20
73.1
 21
73.482
  0
LINE
  8
0
 10
-13.802
 11
-13.889
 20
73.482
 21
73.891
  0
LINE
  8
0
 10
35.519
 11
35.787
 20
-124.985
 21
-123.985
  0
LINE
  8
0
 10
35.787
 11
36.519
 20
-123.985
 21
-123.253
  0
LINE
  8
0
 10
36.519
 11
37.519
 20
-123.253
 21
-122.985
  0
LINE
  8
0
 10
37.519
 11
38.519
 20
-122.985
 21
-123.253
  0
LINE
  8
0
 10
38.519
 11
39.251
 20
-123.253
 21
-123.985
  0
LINE
  8
0
 10
39.251
 11
39.519
 20
-123.985
 21
-124.985
  0
LINE
  8
0
 10
39.519
 11
39.251
 20
-124.985
 21
-125.985
  0
LINE
  8
0
 10
39.251
 11
38.519
 20
-125.985
 21
-126.717
  0
LINE
  8
0
 10
38.519
 11
37.519
 20
-126.717
 21
-126.985
  0
LINE
  8
0
 10
37.519
 11
36.519
 20
-126.985
 21
-126.717
  0
LINE
  8
0
 10
36.519
 11
35.787
 20
-126.717
 21
-125.985
  0
LINE
  8
0
 10
35.787
 11
35.519
 20
-125.985
 21
-124.985
  0
LINE
  8
0
 10
35.519
 11
35.787
 20
124.985
 21
125.985
  0
LINE
  8
0
 10
35.787
 11
36.519
 20
125.985
 21
126.717
  0
LINE
  8
0
 10
36.519
 11
37.519
 20
126.717
 21
126.985
  0
LINE
  8
0
 10
37.519
 11
38.519
 20
126.985
 21
126.717
  0
LINE
  8
0
 10
38.519
 11
39.251
 20
126.717
 21
125.985
  0
LINE
  8
0
 10
39.251
 11
39.519
 20
125.985
 21
124.985
  0
LINE
  8
0
 10
39.519
 11
39.251
 20
124.985
 21
123.985
  0
LINE
  8
0
 10
39.251
 11
38.519
 20
123.985
 21
123.253
  0
LINE
  8
0
 10
38.519
 11
37.519
 20
123.253
 21
122.985
  0
LINE
  8
0
 10
37.519
 11
36.519
 20
122.985
 21
123.253
  0
LINE
  8
0
 10
36.519
 11
35.787
 20
123.253
 21
123.985
  0
LINE
  8
0
 10
35.787
 11
35.519
 20
123.985
 21
124.985
  0
LINE
  8
0
 10
53.519
 11
53.787
 20
-156.162
 21
-155.162
  0
LINE
  8
0
 10
53.787
 11
54.519
 20
-155.162
 21
-154.43
  0
LINE
  8
0
 10
54.519
 11
55.519
 20
-154.43
 21
-154.162
  0
LINE
  8
0
 10
55.519
 11
56.519
 20
-154.162
 21
-154.43
  0
LINE
  8
0
 10
56.519
 11
57.251
 20
-154.43
 21
-155.162
  0
LINE
  8
0
 10
57.251
 11
57.519
 20
-155.162
 21
-156.162
  0
LINE
  8
0
 10
57.519
 11
57.251
 20
-156.162
 21
-157.162
  0
LINE
  8
0
 10
57.251
 11
56.519
 20
-157.162
 21
-157.894
  0
LINE
  8
0
 10
56.519
 11
55.519
 20
-157.894
 21
-158.162
  0
LINE
  8
0
 10
55.519
 11
54.519
 20
-158.162
 21
-157.894
  0
LINE
  8
0
 10
54.519
 11
53.787
 20
-157.894
 21
-157.162
  0
LINE
  8
0
 10
53.787
 11
53.519
 20
-157.162
 21
-156.162
  0
LINE
  8
0
 10
53.519
 11
53.787
 20
156.162
 21
157.162
  0
LINE
  8
0
 10
53.787
 11
54.519
 20
157.162
 21
157.894
  0
LINE
  8
0
 10
54.519
 11
55.519
 20
157.894
 21
158.162
  0
LINE
  8
0
 10
55.519
 11
56.519
 20
158.162
 21
157.894
  0
LINE
  8
0
 10
56.519
 11
57.251
 20
157.894
 21
157.162
  0
LINE
  8
0
 10
57.251
 11
57.519
 20
157.162
 21
156.162
  0
LINE
  8
0
 10
57.519
 11
57.251
 20
156.162
 21
155.162
  0
LINE
  8
0
 10
57.251
 11
56.519
 20
155.162
 21
154.43
  0
LINE
  8
0
 10
56.519
 11
55.519
 20
154.43
 21
154.162
  0
LINE
  8
0
 10
55.519
 11
54.519
 20
154.162
 21
154.43
  0
LINE
  8
0
 10
54.519
 11
53.787
 20
154.43
 21
155.162
  0
LINE
  8
0
 10
53.787
 11
53.519
 20
155.162
 21
156.162
  0
LINE
  8
0
 10
87.481
 11
87.749
 20
-94.985
 21
-93.985
  0
LINE
  8
0
 10
87.749
 11
88.481
 20
-93.985
 21
-93.253
  0
LINE
  8
0
 10
88.481
 11
89.481
 20
-93.253
 21
-92.985
  0
LINE
  8
0
 10
89.481
 11
90.481
 20
-92.985
 21
-93.253
  0
LINE
  8
0
 10
90.481
 11
91.213
 20
-93.253
 21
-93.985
  0
LINE
  8
0
 10
91.213
 11
91.481
 20
-93.985
 21
-94.985
  0
LINE
  8
0
 10
91.481
 11
91.213
 20
-94.985
 21
-95.985
  0
LINE
  8
0
 10
91.213
 11
90.481
 20
-95.985
 21
-96.717
  0
LINE
  8
0
 10
90.481
 11
89.481
 20
-96.717
 21
-96.985
  0
LINE
  8
0
 10
89.481
 11
88.481
 20
-96.985
 21
-96.717
  0
LINE
  8
0
 10
88.481
 11
87.749
 20
-96.717
 21
-95.985
  0
LINE
  8
0
 10
87.749
 11
87.481
 20
-95.985
 21
-94.985
  0
LINE
  8
0
 10
87.481
 11
87.749
 20
94.985
 21
95.985
  0
LINE
  8
0
 10
87.749
 11
88.481
 20
95.985
 21
96.717
  0
LINE
  8
0
 10
88.481
 11
89.481
 20
96.717
 21
96.985
  0
LINE
  8
0
 10
89.481
 11
90.481
 20
96.985
 21
96.717
  0
LINE
  8
0
 10
90.481
 11
91.213
 20
96.717
 21
95.985
  0
LINE
  8
0
 10
91.213
 11
91.481
 20
95.985
 21
94.985
  0
LINE
  8
0
 10
91.481
 11
91.213
 20
94.985
 21
93.985
  0
LINE
  8
0
 10
91.213
 11
90.481
 20
93.985
 21
93.253
  0
LINE
  8
0
 10
90.481
 11
89.481
 20
93.253
 21
92.985
  0
LINE
  8
0
 10
89.481
 11
88.481
 20
92.985
 21
93.253
  0
LINE
  8
0
 10
88.481
 11
87.749
 20
93.253
 21
93.985
  0
LINE
  8
0
 10
87.749
 11
87.481
 20
93.985
 21
94.985
  0
LINE
  8
0
 10
102.55
 11
103.632
 20
-104.055
 21
-102.698
  0
LINE
  8
0
 10
103.632
 11
105.368
 20
-102.698
 21
-102.698
  0
LINE
  8
0
 10
105.368
 11
106.45
 20
-102.698
 21
-104.055
  0
LINE
  8
0
 10
106.45
 11
106.064
 20
-104.055
 21
-105.747
  0
LINE
  8
0
 10
106.064
 11
104.5
 20
-105.747
 21
-106.5
  0
LINE
  8
0
 10
104.5
 11
102.936
 20
-106.5
 21
-105.747
  0
LINE
  8
0
 10
102.936
 11
102.55
 20
-105.747
 21
-104.055
  0
LINE
  8
0
 10
102.698
 11
102.698
 20
103.632
 21
105.368
  0
LINE
  8
0
 10
102.698
 11
104.055
 20
105.368
 21
106.45
  0
LINE
  8
0
 10
104.055
 11
105.747
 20
106.45
 21
106.064
  0
LINE
  8
0
 10
105.747
 11
106.5
 20
106.064
 21
104.5
  0
LINE
  8
0
 10
106.5
 11
105.747
 20
104.5
 21
102.936
  0
LINE
  8
0
 10
105.747
 11
104.055
 20
102.936
 21
102.55
  0
LINE
  8
0
 10
104.055
 11
102.698
 20
102.55
 21
103.632
  0
LINE
  8
0
 10
105.481
 11
105.749
 20
-126.162
 21
-125.162
  0
LINE
  8
0
 10
105.749
 11
106.481
 20
-125.162
 21
-124.43
  0
LINE
  8
0
 10
106.481
 11
107.481
 20
-124.43
 21
-124.162
  0
LINE
  8
0
 10
107.481
 11
108.481
 20
-124.162
 21
-124.43
  0
LINE
  8
0
 10
108.481
 11
109.213
 20
-124.43
 21
-125.162
  0
LINE
  8
0
 10
109.213
 11
109.481
 20
-125.162
 21
-126.162
  0
LINE
  8
0
 10
109.481
 11
109.213
 20
-126.162
 21
-127.162
  0
LINE
  8
0
 10
109.213
 11
108.481
 20
-127.162
 21
-127.894
  0
LINE
  8
0
 10
108.481
 11
107.481
 20
-127.894
 21
-128.162
  0
LINE
  8
0
 10
107.481
 11
106.481
 20
-128.162
 21
-127.894
  0
LINE
  8
0
 10
106.481
 11
105.749
 20
-127.894
 21
-127.162
  0
LINE
  8
0
 10
105.749
 11
105.481
 20
-127.162
 21
-126.162
  0
LINE
  8
0
 10
105.481
 11
105.749
 20
126.162
 21
127.162
  0
LINE
  8
0
 10
105.749
 11
106.481
 20
127.162
 21
127.894
  0
LINE
  8
0
 10
106.481
 11
107.481
 20
127.894
 21
128.162
  0
LINE
  8
0
 10
107.481
 11
108.481
 20
128.162
 21
127.894
  0
LINE
  8
0
 10
108.481
 11
109.213
 20
127.894
 21
127.162
  0
LINE
  8
0
 10
109.213
 11
109.481
 20
127.162
 21
126.162
  0
LINE
  8
0
 10
109.481
 11
109.213
 20
126.162
 21
125.162
  0
LINE
  8
0
 10
109.213
 11
108.481
 20
125.162
 21
124.43
  0
LINE
  8
0
 10
108.481
 11
107.481
 20
124.43
 21
124.162
  0
LINE
  8
0
 10
107.481
 11
106.481
 20
124.162
 21
124.43
  0
LINE
  8
0
 10
106.481
 11
105.749
 20
124.43
 21
125.162
  0
LINE
  8
0
 10
105.749
 11
105.481
 20
125.162
 21
126.162
  0
ENDSEC
  0
SECTION
  2
OBJECTS
  0
DICTIONARY
  0
ENDSEC
  0
EOF
