solid OpenSCAD_Model
  facet normal -1 -0 -0
    outer loop
      vertex 0 0 0
      vertex 0 0 9
      vertex 0 75.472 0
    endloop
  endfacet
  facet normal -1 0 0
    outer loop
      vertex 0 75.472 0
      vertex 0 0 9
      vertex 0 75.472 9
    endloop
  endfacet
  facet normal 0 -1 0
    outer loop
      vertex 0 0 9
      vertex 0 0 0
      vertex 75.472 0 0
    endloop
  endfacet
  facet normal 0 -1 0
    outer loop
      vertex 75.472 0 9
      vertex 0 0 9
      vertex 75.472 0 0
    endloop
  endfacet
  facet normal 0 0 -1
    outer loop
      vertex 10 65.5 0
      vertex 0 75.472 0
      vertex 2.90943 76.0904 0
    endloop
  endfacet
  facet normal 0 0 -1
    outer loop
      vertex 24.5 60.552 0
      vertex 11.1803 75.2211 0
      vertex 15 73.5205 0
    endloop
  endfacet
  facet normal 0 0 -1
    outer loop
      vertex 23.2709 64.3347 0
      vertex 15 73.5205 0
      vertex 18.3826 71.0629 0
    endloop
  endfacet
  facet normal 0 0 -1
    outer loop
      vertex 24.5 60.552 0
      vertex 15 73.5205 0
      vertex 23.2709 64.3347 0
    endloop
  endfacet
  facet normal 0 0 -1
    outer loop
      vertex 24.5 44.9257 0
      vertex 11 61.7679 0
      vertex 11.7321 62.5 0
    endloop
  endfacet
  facet normal 0 0 -1
    outer loop
      vertex 0 0 0
      vertex 24.5 44.9257 0
      vertex 24.45 44.45 0
    endloop
  endfacet
  facet normal 0 0 -1
    outer loop
      vertex 0 0 0
      vertex 24.45 44.45 0
      vertex 24.887 40.2918 0
    endloop
  endfacet
  facet normal 0 0 -1
    outer loop
      vertex 0 0 0
      vertex 24.887 40.2918 0
      vertex 26.1791 36.3153 0
    endloop
  endfacet
  facet normal 0 0 -1
    outer loop
      vertex 60.552 24.5 0
      vertex 65.2321 11 0
      vertex 64.5 11.7321 0
    endloop
  endfacet
  facet normal 0 0 -1
    outer loop
      vertex 0 0 0
      vertex 26.1791 36.3153 0
      vertex 28.2697 32.6943 0
    endloop
  endfacet
  facet normal 0 0 -1
    outer loop
      vertex 60.552 24.5 0
      vertex 63.5 12 0
      vertex 62.5 11.7321 0
    endloop
  endfacet
  facet normal 0 0 -1
    outer loop
      vertex 0 0 0
      vertex 28.2697 32.6943 0
      vertex 31.0674 29.5871 0
    endloop
  endfacet
  facet normal 0 0 -1
    outer loop
      vertex 42.3594 24.5596 0
      vertex 61.5 10 0
      vertex 38.2697 25.4289 0
    endloop
  endfacet
  facet normal 0 0 -1
    outer loop
      vertex 0 0 0
      vertex 31.0674 29.5871 0
      vertex 34.45 27.1295 0
    endloop
  endfacet
  facet normal 0 0 -1
    outer loop
      vertex 63.5 8 0
      vertex 75.472 0 0
      vertex 62.5 8.26795 0
    endloop
  endfacet
  facet normal 0 0 -1
    outer loop
      vertex 60.552 24.5 0
      vertex 75.472 0 0
      vertex 65.2321 11 0
    endloop
  endfacet
  facet normal 0 0 -1
    outer loop
      vertex 42.3594 24.5596 0
      vertex 44 24.5596 0
      vertex 44 24.5 0
    endloop
  endfacet
  facet normal 0 0 -1
    outer loop
      vertex 64.5 8.26795 0
      vertex 75.472 0 0
      vertex 63.5 8 0
    endloop
  endfacet
  facet normal -0 0 -1
    outer loop
      vertex 12 31.75 0
      vertex 24.5 44.9257 0
      vertex 11.7321 30.75 0
    endloop
  endfacet
  facet normal 0 0 -1
    outer loop
      vertex 60.552 24.5 0
      vertex 64.3347 23.2709 0
      vertex 75.472 0 0
    endloop
  endfacet
  facet normal 0 0 -1
    outer loop
      vertex 75.472 0 0
      vertex 64.3347 23.2709 0
      vertex 67.9557 21.1803 0
    endloop
  endfacet
  facet normal 0 0 -1
    outer loop
      vertex 75.472 0 0
      vertex 67.9557 21.1803 0
      vertex 71.0629 18.3826 0
    endloop
  endfacet
  facet normal 0 0 -1
    outer loop
      vertex 75.472 0 0
      vertex 71.0629 18.3826 0
      vertex 73.5205 15 0
    endloop
  endfacet
  facet normal 0 0 -1
    outer loop
      vertex 75.472 0 0
      vertex 73.5205 15 0
      vertex 75.2211 11.1803 0
    endloop
  endfacet
  facet normal 0 -0 -1
    outer loop
      vertex 75.472 0 0
      vertex 75.2211 11.1803 0
      vertex 76.0904 7.09057 0
    endloop
  endfacet
  facet normal 0 0 -1
    outer loop
      vertex 75.472 0 0
      vertex 76.0904 7.09057 0
      vertex 76.0904 2.90943 0
    endloop
  endfacet
  facet normal 0 -0 -1
    outer loop
      vertex 0 0 0
      vertex 0 75.472 0
      vertex 8 31.75 0
    endloop
  endfacet
  facet normal 0 0 -1
    outer loop
      vertex 0 0 0
      vertex 8 31.75 0
      vertex 8.26795 30.75 0
    endloop
  endfacet
  facet normal 0 0 -1
    outer loop
      vertex 0 0 0
      vertex 8.26795 30.75 0
      vertex 9 30.0179 0
    endloop
  endfacet
  facet normal 0 0 -1
    outer loop
      vertex 0 0 0
      vertex 9 30.0179 0
      vertex 10 29.75 0
    endloop
  endfacet
  facet normal 0 0 -1
    outer loop
      vertex 0 0 0
      vertex 10 29.75 0
      vertex 11 30.0179 0
    endloop
  endfacet
  facet normal 0 0 -1
    outer loop
      vertex 0 0 0
      vertex 11 30.0179 0
      vertex 11.7321 30.75 0
    endloop
  endfacet
  facet normal 0 0 -1
    outer loop
      vertex 0 0 0
      vertex 11.7321 30.75 0
      vertex 24.5 44.9257 0
    endloop
  endfacet
  facet normal -0 0 -1
    outer loop
      vertex 11.7321 32.75 0
      vertex 24.5 44.9257 0
      vertex 12 31.75 0
    endloop
  endfacet
  facet normal -0 0 -1
    outer loop
      vertex 11 33.4821 0
      vertex 24.5 44.9257 0
      vertex 11.7321 32.75 0
    endloop
  endfacet
  facet normal -0 0 -1
    outer loop
      vertex 10 33.75 0
      vertex 24.5 44.9257 0
      vertex 11 33.4821 0
    endloop
  endfacet
  facet normal 0 -0 -1
    outer loop
      vertex 9 33.4821 0
      vertex 0 75.472 0
      vertex 10 33.75 0
    endloop
  endfacet
  facet normal 0 -0 -1
    outer loop
      vertex 8 63.5 0
      vertex 0 75.472 0
      vertex 8.26795 64.5 0
    endloop
  endfacet
  facet normal 0 -0 -1
    outer loop
      vertex 8.26795 32.75 0
      vertex 0 75.472 0
      vertex 9 33.4821 0
    endloop
  endfacet
  facet normal 0 -0 -1
    outer loop
      vertex 8 31.75 0
      vertex 0 75.472 0
      vertex 8.26795 32.75 0
    endloop
  endfacet
  facet normal 0 0 -1
    outer loop
      vertex 10 33.75 0
      vertex 0 75.472 0
      vertex 8 63.5 0
    endloop
  endfacet
  facet normal 0 0 -1
    outer loop
      vertex 32.75 8.26795 0
      vertex 75.472 0 0
      vertex 31.75 8 0
    endloop
  endfacet
  facet normal 0 0 -1
    outer loop
      vertex 10 33.75 0
      vertex 8 63.5 0
      vertex 8.26795 62.5 0
    endloop
  endfacet
  facet normal 0 -0 -1
    outer loop
      vertex 10 33.75 0
      vertex 8.26795 62.5 0
      vertex 24.5 44.9257 0
    endloop
  endfacet
  facet normal 0 0 -1
    outer loop
      vertex 8.26795 62.5 0
      vertex 9 61.7679 0
      vertex 24.5 44.9257 0
    endloop
  endfacet
  facet normal 0 0 -1
    outer loop
      vertex 10 61.5 0
      vertex 24.5 44.9257 0
      vertex 9 61.7679 0
    endloop
  endfacet
  facet normal 0 0 -1
    outer loop
      vertex 11 61.7679 0
      vertex 24.5 44.9257 0
      vertex 10 61.5 0
    endloop
  endfacet
  facet normal -0 -0 -1
    outer loop
      vertex 10 65.5 0
      vertex 2.90943 76.0904 0
      vertex 11 65.2321 0
    endloop
  endfacet
  facet normal 0 -0 -1
    outer loop
      vertex 8.26795 64.5 0
      vertex 0 75.472 0
      vertex 9 65.2321 0
    endloop
  endfacet
  facet normal 0 0 -1
    outer loop
      vertex 11.7321 64.5 0
      vertex 11 65.2321 0
      vertex 2.90943 76.0904 0
    endloop
  endfacet
  facet normal 0 -0 -1
    outer loop
      vertex 9 65.2321 0
      vertex 0 75.472 0
      vertex 10 65.5 0
    endloop
  endfacet
  facet normal 0 0 -1
    outer loop
      vertex 61.5 10 0
      vertex 42.3594 24.5596 0
      vertex 44 24.5 0
    endloop
  endfacet
  facet normal 0 0 -1
    outer loop
      vertex 0 0 0
      vertex 29.75 10 0
      vertex 30.0179 9 0
    endloop
  endfacet
  facet normal 0 0 -1
    outer loop
      vertex 0 0 0
      vertex 30.0179 9 0
      vertex 30.75 8.26795 0
    endloop
  endfacet
  facet normal 0 0 -1
    outer loop
      vertex 0 0 0
      vertex 30.75 8.26795 0
      vertex 31.75 8 0
    endloop
  endfacet
  facet normal -0 0 -1
    outer loop
      vertex 0 0 0
      vertex 31.75 8 0
      vertex 75.472 0 0
    endloop
  endfacet
  facet normal 0 0 -1
    outer loop
      vertex 33.4821 9 0
      vertex 75.472 0 0
      vertex 32.75 8.26795 0
    endloop
  endfacet
  facet normal 0 0 -1
    outer loop
      vertex 33.75 10 0
      vertex 75.472 0 0
      vertex 33.4821 9 0
    endloop
  endfacet
  facet normal -0 0 -1
    outer loop
      vertex 33.4821 11 0
      vertex 34.45 27.1295 0
      vertex 33.75 10 0
    endloop
  endfacet
  facet normal 0 0 -1
    outer loop
      vertex 30.0179 11 0
      vertex 34.45 27.1295 0
      vertex 30.75 11.7321 0
    endloop
  endfacet
  facet normal -0 0 -1
    outer loop
      vertex 32.75 11.7321 0
      vertex 34.45 27.1295 0
      vertex 33.4821 11 0
    endloop
  endfacet
  facet normal -0 0 -1
    outer loop
      vertex 31.75 12 0
      vertex 34.45 27.1295 0
      vertex 32.75 11.7321 0
    endloop
  endfacet
  facet normal 0 0 -1
    outer loop
      vertex 30.75 11.7321 0
      vertex 34.45 27.1295 0
      vertex 31.75 12 0
    endloop
  endfacet
  facet normal 0 -0 -1
    outer loop
      vertex 61.5 10 0
      vertex 44 24.5 0
      vertex 61.7679 11 0
    endloop
  endfacet
  facet normal 0 0 -1
    outer loop
      vertex 0 0 0
      vertex 34.45 27.1295 0
      vertex 30.0179 11 0
    endloop
  endfacet
  facet normal 0 0 -1
    outer loop
      vertex 0 0 0
      vertex 30.0179 11 0
      vertex 29.75 10 0
    endloop
  endfacet
  facet normal 0 0 -1
    outer loop
      vertex 60.552 24.5 0
      vertex 64.5 11.7321 0
      vertex 63.5 12 0
    endloop
  endfacet
  facet normal -0 0 -1
    outer loop
      vertex 33.75 10 0
      vertex 34.45 27.1295 0
      vertex 61.7679 9 0
    endloop
  endfacet
  facet normal 0 0 -1
    outer loop
      vertex 33.75 10 0
      vertex 61.7679 9 0
      vertex 62.5 8.26795 0
    endloop
  endfacet
  facet normal 0 0 -1
    outer loop
      vertex 33.75 10 0
      vertex 62.5 8.26795 0
      vertex 75.472 0 0
    endloop
  endfacet
  facet normal 0 0 -1
    outer loop
      vertex 61.7679 9 0
      vertex 34.45 27.1295 0
      vertex 38.2697 25.4289 0
    endloop
  endfacet
  facet normal 0 0 -1
    outer loop
      vertex 61.7679 9 0
      vertex 38.2697 25.4289 0
      vertex 61.5 10 0
    endloop
  endfacet
  facet normal 0 0 -1
    outer loop
      vertex 65.5 10 0
      vertex 75.472 0 0
      vertex 65.2321 9 0
    endloop
  endfacet
  facet normal 0 0 -1
    outer loop
      vertex 60.552 24.5 0
      vertex 62.5 11.7321 0
      vertex 61.7679 11 0
    endloop
  endfacet
  facet normal 0 0 -1
    outer loop
      vertex 60.552 24.5 0
      vertex 61.7679 11 0
      vertex 44 24.5 0
    endloop
  endfacet
  facet normal 0 0 -1
    outer loop
      vertex 65.2321 11 0
      vertex 75.472 0 0
      vertex 65.5 10 0
    endloop
  endfacet
  facet normal 0 0 -1
    outer loop
      vertex 23.2709 64.3347 0
      vertex 18.3826 71.0629 0
      vertex 21.1803 67.9557 0
    endloop
  endfacet
  facet normal 0 0 -1
    outer loop
      vertex 24.5 44.9257 0
      vertex 11.7321 62.5 0
      vertex 12 63.5 0
    endloop
  endfacet
  facet normal 0 0 -1
    outer loop
      vertex 24.5 44.9257 0
      vertex 12 63.5 0
      vertex 11.7321 64.5 0
    endloop
  endfacet
  facet normal 0 0 -1
    outer loop
      vertex 11.7321 64.5 0
      vertex 2.90943 76.0904 0
      vertex 7.09057 76.0904 0
    endloop
  endfacet
  facet normal 0 0 -1
    outer loop
      vertex 24.5 44.9257 0
      vertex 11.7321 64.5 0
      vertex 7.09057 76.0904 0
    endloop
  endfacet
  facet normal 0 0 -1
    outer loop
      vertex 24.5 44.9257 0
      vertex 7.09057 76.0904 0
      vertex 11.1803 75.2211 0
    endloop
  endfacet
  facet normal 0 0 -1
    outer loop
      vertex 24.5 44.9257 0
      vertex 11.1803 75.2211 0
      vertex 24.5 60.552 0
    endloop
  endfacet
  facet normal 0 0 -1
    outer loop
      vertex 65.2321 9 0
      vertex 75.472 0 0
      vertex 64.5 8.26795 0
    endloop
  endfacet
  facet normal -0.207912 0.978148 0
    outer loop
      vertex 0 75.472 0
      vertex 0 75.472 9
      vertex 2.90943 76.0904 0
    endloop
  endfacet
  facet normal -0.207912 0.978148 0
    outer loop
      vertex 2.90943 76.0904 0
      vertex 0 75.472 9
      vertex 2.90943 76.0904 9
    endloop
  endfacet
  facet normal 0 -0 1
    outer loop
      vertex 31.75 8 9
      vertex 0 0 9
      vertex 75.472 0 9
    endloop
  endfacet
  facet normal 0 0 1
    outer loop
      vertex 11 61.7679 9
      vertex 24.887 40.2918 9
      vertex 24.45 44.45 9
    endloop
  endfacet
  facet normal -0 -0 1
    outer loop
      vertex 64.3347 23.2709 9
      vertex 60.552 24.5 9
      vertex 73.5205 15 9
    endloop
  endfacet
  facet normal -0 -0 1
    outer loop
      vertex 71.0629 18.3826 9
      vertex 64.3347 23.2709 9
      vertex 73.5205 15 9
    endloop
  endfacet
  facet normal 0 0 1
    outer loop
      vertex 8.26795 62.5 9
      vertex 8 63.5 9
      vertex 0 75.472 9
    endloop
  endfacet
  facet normal -0 -0 1
    outer loop
      vertex 73.5205 15 9
      vertex 60.552 24.5 9
      vertex 75.2211 11.1803 9
    endloop
  endfacet
  facet normal 0 0 1
    outer loop
      vertex 10 65.5 9
      vertex 11 65.2321 9
      vertex 0 75.472 9
    endloop
  endfacet
  facet normal 0 -0 1
    outer loop
      vertex 42.3594 24.5596 9
      vertex 0 0 9
      vertex 44 24.5 9
    endloop
  endfacet
  facet normal 0 0 1
    outer loop
      vertex 44 24.5596 9
      vertex 42.3594 24.5596 9
      vertex 44 24.5 9
    endloop
  endfacet
  facet normal 0 -0 1
    outer loop
      vertex 38.2697 25.4289 9
      vertex 0 0 9
      vertex 42.3594 24.5596 9
    endloop
  endfacet
  facet normal 0 -0 1
    outer loop
      vertex 34.45 27.1295 9
      vertex 0 0 9
      vertex 38.2697 25.4289 9
    endloop
  endfacet
  facet normal 0 -0 1
    outer loop
      vertex 31.0674 29.5871 9
      vertex 0 0 9
      vertex 34.45 27.1295 9
    endloop
  endfacet
  facet normal 0 -0 1
    outer loop
      vertex 28.2697 32.6943 9
      vertex 0 0 9
      vertex 31.0674 29.5871 9
    endloop
  endfacet
  facet normal 0 -0 1
    outer loop
      vertex 11.7321 30.75 9
      vertex 0 0 9
      vertex 28.2697 32.6943 9
    endloop
  endfacet
  facet normal 0 -0 1
    outer loop
      vertex 11 61.7679 9
      vertex 10 61.5 9
      vertex 24.887 40.2918 9
    endloop
  endfacet
  facet normal -0 -0 1
    outer loop
      vertex 23.2709 64.3347 9
      vertex 0 75.472 9
      vertex 24.5 60.552 9
    endloop
  endfacet
  facet normal -0 -0 1
    outer loop
      vertex 21.1803 67.9557 9
      vertex 0 75.472 9
      vertex 23.2709 64.3347 9
    endloop
  endfacet
  facet normal -0 -0 1
    outer loop
      vertex 18.3826 71.0629 9
      vertex 0 75.472 9
      vertex 21.1803 67.9557 9
    endloop
  endfacet
  facet normal -0 -0 1
    outer loop
      vertex 15 73.5205 9
      vertex 0 75.472 9
      vertex 18.3826 71.0629 9
    endloop
  endfacet
  facet normal -0 -0 1
    outer loop
      vertex 11.1803 75.2211 9
      vertex 0 75.472 9
      vertex 15 73.5205 9
    endloop
  endfacet
  facet normal 0 -0 1
    outer loop
      vertex 7.09057 76.0904 9
      vertex 0 75.472 9
      vertex 11.1803 75.2211 9
    endloop
  endfacet
  facet normal 0 -0 1
    outer loop
      vertex 2.90943 76.0904 9
      vertex 0 75.472 9
      vertex 7.09057 76.0904 9
    endloop
  endfacet
  facet normal 0 -0 1
    outer loop
      vertex 8 31.75 9
      vertex 0 0 9
      vertex 8.26795 30.75 9
    endloop
  endfacet
  facet normal 0 0 1
    outer loop
      vertex 11 33.4821 9
      vertex 11.7321 32.75 9
      vertex 28.2697 32.6943 9
    endloop
  endfacet
  facet normal 0 -0 1
    outer loop
      vertex 0 75.472 9
      vertex 0 0 9
      vertex 8 31.75 9
    endloop
  endfacet
  facet normal 0 -0 1
    outer loop
      vertex 12 31.75 9
      vertex 11.7321 30.75 9
      vertex 28.2697 32.6943 9
    endloop
  endfacet
  facet normal 0 0 1
    outer loop
      vertex 11.7321 32.75 9
      vertex 12 31.75 9
      vertex 28.2697 32.6943 9
    endloop
  endfacet
  facet normal 0 0 1
    outer loop
      vertex 0 75.472 9
      vertex 8.26795 32.75 9
      vertex 9 33.4821 9
    endloop
  endfacet
  facet normal 0 0 1
    outer loop
      vertex 8.26795 62.5 9
      vertex 10 33.75 9
      vertex 28.2697 32.6943 9
    endloop
  endfacet
  facet normal 0 0 1
    outer loop
      vertex 0 75.472 9
      vertex 9 33.4821 9
      vertex 10 33.75 9
    endloop
  endfacet
  facet normal 0 0 1
    outer loop
      vertex 10 33.75 9
      vertex 11 33.4821 9
      vertex 28.2697 32.6943 9
    endloop
  endfacet
  facet normal 0 -0 1
    outer loop
      vertex 11 30.0179 9
      vertex 0 0 9
      vertex 11.7321 30.75 9
    endloop
  endfacet
  facet normal 0 -0 1
    outer loop
      vertex 10 29.75 9
      vertex 0 0 9
      vertex 11 30.0179 9
    endloop
  endfacet
  facet normal 0 -0 1
    outer loop
      vertex 9 30.0179 9
      vertex 0 0 9
      vertex 10 29.75 9
    endloop
  endfacet
  facet normal 0 -0 1
    outer loop
      vertex 8.26795 30.75 9
      vertex 0 0 9
      vertex 9 30.0179 9
    endloop
  endfacet
  facet normal -0 -0 1
    outer loop
      vertex 9 61.7679 9
      vertex 8.26795 62.5 9
      vertex 28.2697 32.6943 9
    endloop
  endfacet
  facet normal 0 0 1
    outer loop
      vertex 0 75.472 9
      vertex 10 33.75 9
      vertex 8.26795 62.5 9
    endloop
  endfacet
  facet normal 0 0 1
    outer loop
      vertex 8.26795 64.5 9
      vertex 9 65.2321 9
      vertex 0 75.472 9
    endloop
  endfacet
  facet normal 0 0 1
    outer loop
      vertex 10 61.5 9
      vertex 26.1791 36.3153 9
      vertex 24.887 40.2918 9
    endloop
  endfacet
  facet normal 0 0 1
    outer loop
      vertex 24.5 44.9257 9
      vertex 24.5 60.552 9
      vertex 11.7321 64.5 9
    endloop
  endfacet
  facet normal 0 -0 1
    outer loop
      vertex 11.7321 62.5 9
      vertex 11 61.7679 9
      vertex 24.5 44.9257 9
    endloop
  endfacet
  facet normal 0 0 1
    outer loop
      vertex 11.7321 64.5 9
      vertex 24.5 60.552 9
      vertex 11 65.2321 9
    endloop
  endfacet
  facet normal 0 0 1
    outer loop
      vertex 10 61.5 9
      vertex 28.2697 32.6943 9
      vertex 26.1791 36.3153 9
    endloop
  endfacet
  facet normal 0 0 1
    outer loop
      vertex 9 65.2321 9
      vertex 10 65.5 9
      vertex 0 75.472 9
    endloop
  endfacet
  facet normal 0 0 1
    outer loop
      vertex 11 61.7679 9
      vertex 24.45 44.45 9
      vertex 24.5 44.9257 9
    endloop
  endfacet
  facet normal 0 0 1
    outer loop
      vertex 30.75 11.7321 9
      vertex 31.75 12 9
      vertex 44 24.5 9
    endloop
  endfacet
  facet normal -0 0 1
    outer loop
      vertex 31.75 8 9
      vertex 30.75 8.26795 9
      vertex 0 0 9
    endloop
  endfacet
  facet normal 0 -0 1
    outer loop
      vertex 29.75 10 9
      vertex 0 0 9
      vertex 30.0179 9 9
    endloop
  endfacet
  facet normal 0 0 1
    outer loop
      vertex 30.0179 11 9
      vertex 0 0 9
      vertex 29.75 10 9
    endloop
  endfacet
  facet normal 0 0 1
    outer loop
      vertex 31.75 12 9
      vertex 32.75 11.7321 9
      vertex 44 24.5 9
    endloop
  endfacet
  facet normal 0 0 1
    outer loop
      vertex 30.75 11.7321 9
      vertex 0 0 9
      vertex 30.0179 11 9
    endloop
  endfacet
  facet normal 0 0 1
    outer loop
      vertex 61.5 10 9
      vertex 61.7679 11 9
      vertex 44 24.5 9
    endloop
  endfacet
  facet normal 0 0 1
    outer loop
      vertex 44 24.5 9
      vertex 0 0 9
      vertex 30.75 11.7321 9
    endloop
  endfacet
  facet normal 0 -0 1
    outer loop
      vertex 33.4821 9 9
      vertex 32.75 8.26795 9
      vertex 75.472 0 9
    endloop
  endfacet
  facet normal -0 -0 1
    outer loop
      vertex 62.5 8.26795 9
      vertex 32.75 11.7321 9
      vertex 75.472 0 9
    endloop
  endfacet
  facet normal 0 0 1
    outer loop
      vertex 32.75 11.7321 9
      vertex 33.4821 11 9
      vertex 75.472 0 9
    endloop
  endfacet
  facet normal 0 0 1
    outer loop
      vertex 33.4821 11 9
      vertex 33.75 10 9
      vertex 75.472 0 9
    endloop
  endfacet
  facet normal 0 -0 1
    outer loop
      vertex 33.75 10 9
      vertex 33.4821 9 9
      vertex 75.472 0 9
    endloop
  endfacet
  facet normal 0 -0 1
    outer loop
      vertex 32.75 8.26795 9
      vertex 31.75 8 9
      vertex 75.472 0 9
    endloop
  endfacet
  facet normal 0 -0 1
    outer loop
      vertex 30.0179 9 9
      vertex 0 0 9
      vertex 30.75 8.26795 9
    endloop
  endfacet
  facet normal 0 -0 1
    outer loop
      vertex 44 24.5 9
      vertex 32.75 11.7321 9
      vertex 61.7679 9 9
    endloop
  endfacet
  facet normal -0 -0 1
    outer loop
      vertex 63.5 8 9
      vertex 62.5 8.26795 9
      vertex 75.472 0 9
    endloop
  endfacet
  facet normal 0 0 1
    outer loop
      vertex 44 24.5 9
      vertex 61.7679 9 9
      vertex 61.5 10 9
    endloop
  endfacet
  facet normal 0 -0 1
    outer loop
      vertex 64.5 8.26795 9
      vertex 63.5 8 9
      vertex 75.472 0 9
    endloop
  endfacet
  facet normal -0 -0 1
    outer loop
      vertex 10 61.5 9
      vertex 9 61.7679 9
      vertex 28.2697 32.6943 9
    endloop
  endfacet
  facet normal 0 0 1
    outer loop
      vertex 24.5 44.9257 9
      vertex 11.7321 64.5 9
      vertex 12 63.5 9
    endloop
  endfacet
  facet normal 0 0 1
    outer loop
      vertex 11 65.2321 9
      vertex 24.5 60.552 9
      vertex 0 75.472 9
    endloop
  endfacet
  facet normal 0 0 1
    outer loop
      vertex 76.0904 2.90943 9
      vertex 64.5 11.7321 9
      vertex 65.2321 11 9
    endloop
  endfacet
  facet normal -0 0 1
    outer loop
      vertex 76.0904 2.90943 9
      vertex 65.5 10 9
      vertex 75.472 0 9
    endloop
  endfacet
  facet normal 0 0 1
    outer loop
      vertex 65.2321 11 9
      vertex 65.5 10 9
      vertex 76.0904 2.90943 9
    endloop
  endfacet
  facet normal 0 -0 1
    outer loop
      vertex 65.5 10 9
      vertex 65.2321 9 9
      vertex 75.472 0 9
    endloop
  endfacet
  facet normal -0 -0 1
    outer loop
      vertex 61.7679 9 9
      vertex 32.75 11.7321 9
      vertex 62.5 8.26795 9
    endloop
  endfacet
  facet normal 0 0 1
    outer loop
      vertex 8 31.75 9
      vertex 8.26795 32.75 9
      vertex 0 75.472 9
    endloop
  endfacet
  facet normal -0 -0 1
    outer loop
      vertex 67.9557 21.1803 9
      vertex 64.3347 23.2709 9
      vertex 71.0629 18.3826 9
    endloop
  endfacet
  facet normal 0 -0 1
    outer loop
      vertex 12 63.5 9
      vertex 11.7321 62.5 9
      vertex 24.5 44.9257 9
    endloop
  endfacet
  facet normal 0 0 1
    outer loop
      vertex 8 63.5 9
      vertex 8.26795 64.5 9
      vertex 0 75.472 9
    endloop
  endfacet
  facet normal 0 0 1
    outer loop
      vertex 60.552 24.5 9
      vertex 76.0904 7.09057 9
      vertex 75.2211 11.1803 9
    endloop
  endfacet
  facet normal 0 0 1
    outer loop
      vertex 60.552 24.5 9
      vertex 76.0904 2.90943 9
      vertex 76.0904 7.09057 9
    endloop
  endfacet
  facet normal 0 0 1
    outer loop
      vertex 60.552 24.5 9
      vertex 64.5 11.7321 9
      vertex 76.0904 2.90943 9
    endloop
  endfacet
  facet normal 0 0 1
    outer loop
      vertex 60.552 24.5 9
      vertex 63.5 12 9
      vertex 64.5 11.7321 9
    endloop
  endfacet
  facet normal 0 -0 1
    outer loop
      vertex 65.2321 9 9
      vertex 64.5 8.26795 9
      vertex 75.472 0 9
    endloop
  endfacet
  facet normal 0 0 1
    outer loop
      vertex 60.552 24.5 9
      vertex 62.5 11.7321 9
      vertex 63.5 12 9
    endloop
  endfacet
  facet normal 0 0 1
    outer loop
      vertex 60.552 24.5 9
      vertex 61.7679 11 9
      vertex 62.5 11.7321 9
    endloop
  endfacet
  facet normal 0 -0 1
    outer loop
      vertex 60.552 24.5 9
      vertex 44 24.5 9
      vertex 61.7679 11 9
    endloop
  endfacet
  facet normal 0.978148 -0.207912 1.55368e-015
    outer loop
      vertex 76.0904 2.90943 9
      vertex 75.472 0 9
      vertex 75.472 0 0
    endloop
  endfacet
  facet normal 0.978148 -0.207912 0
    outer loop
      vertex 76.0904 2.90943 0
      vertex 76.0904 2.90943 9
      vertex 75.472 0 0
    endloop
  endfacet
  facet normal 1 0 0
    outer loop
      vertex 76.0904 7.09057 9
      vertex 76.0904 2.90943 9
      vertex 76.0904 2.90943 0
    endloop
  endfacet
  facet normal 1 -0 0
    outer loop
      vertex 76.0904 7.09057 0
      vertex 76.0904 7.09057 9
      vertex 76.0904 2.90943 0
    endloop
  endfacet
  facet normal 0.978148 0.207912 0
    outer loop
      vertex 75.2211 11.1803 0
      vertex 75.2211 11.1803 9
      vertex 76.0904 7.09057 9
    endloop
  endfacet
  facet normal 0.978148 0.207912 0
    outer loop
      vertex 76.0904 7.09057 0
      vertex 75.2211 11.1803 0
      vertex 76.0904 7.09057 9
    endloop
  endfacet
  facet normal 0.913545 0.406737 0
    outer loop
      vertex 73.5205 15 0
      vertex 73.5205 15 9
      vertex 75.2211 11.1803 9
    endloop
  endfacet
  facet normal 0.913545 0.406737 0
    outer loop
      vertex 75.2211 11.1803 0
      vertex 73.5205 15 0
      vertex 75.2211 11.1803 9
    endloop
  endfacet
  facet normal 0.809017 0.587785 0
    outer loop
      vertex 71.0629 18.3826 0
      vertex 71.0629 18.3826 9
      vertex 73.5205 15 9
    endloop
  endfacet
  facet normal 0.809017 0.587785 0
    outer loop
      vertex 73.5205 15 0
      vertex 71.0629 18.3826 0
      vertex 73.5205 15 9
    endloop
  endfacet
  facet normal 0.669131 0.743145 -0
    outer loop
      vertex 67.9557 21.1803 9
      vertex 71.0629 18.3826 9
      vertex 67.9557 21.1803 0
    endloop
  endfacet
  facet normal 0.669131 0.743145 0
    outer loop
      vertex 67.9557 21.1803 0
      vertex 71.0629 18.3826 9
      vertex 71.0629 18.3826 0
    endloop
  endfacet
  facet normal 0.5 0.866025 -0
    outer loop
      vertex 64.3347 23.2709 9
      vertex 67.9557 21.1803 9
      vertex 64.3347 23.2709 0
    endloop
  endfacet
  facet normal 0.5 0.866025 0
    outer loop
      vertex 64.3347 23.2709 0
      vertex 67.9557 21.1803 9
      vertex 67.9557 21.1803 0
    endloop
  endfacet
  facet normal 0.309017 0.951057 -0
    outer loop
      vertex 60.552 24.5 9
      vertex 64.3347 23.2709 9
      vertex 60.552 24.5 0
    endloop
  endfacet
  facet normal 0.309017 0.951057 0
    outer loop
      vertex 60.552 24.5 0
      vertex 64.3347 23.2709 9
      vertex 64.3347 23.2709 0
    endloop
  endfacet
  facet normal 0 1 0
    outer loop
      vertex 60.552 24.5 9
      vertex 60.552 24.5 0
      vertex 44 24.5 9
    endloop
  endfacet
  facet normal 0 1 -0
    outer loop
      vertex 44 24.5 9
      vertex 60.552 24.5 0
      vertex 44 24.5 0
    endloop
  endfacet
  facet normal 1 0 0
    outer loop
      vertex 44 24.5596 0
      vertex 44 24.5596 9
      vertex 44 24.5 9
    endloop
  endfacet
  facet normal 1 0 0
    outer loop
      vertex 44 24.5 0
      vertex 44 24.5596 0
      vertex 44 24.5 9
    endloop
  endfacet
  facet normal 0 1 0
    outer loop
      vertex 44 24.5596 9
      vertex 44 24.5596 0
      vertex 42.3594 24.5596 9
    endloop
  endfacet
  facet normal 0 1 -0
    outer loop
      vertex 42.3594 24.5596 9
      vertex 44 24.5596 0
      vertex 42.3594 24.5596 0
    endloop
  endfacet
  facet normal 0.207912 0.978148 -0
    outer loop
      vertex 42.3594 24.5596 9
      vertex 42.3594 24.5596 0
      vertex 38.2697 25.4289 9
    endloop
  endfacet
  facet normal 0.207912 0.978148 -0
    outer loop
      vertex 38.2697 25.4289 9
      vertex 42.3594 24.5596 0
      vertex 38.2697 25.4289 0
    endloop
  endfacet
  facet normal 0.406737 0.913545 -0
    outer loop
      vertex 38.2697 25.4289 9
      vertex 38.2697 25.4289 0
      vertex 34.45 27.1295 9
    endloop
  endfacet
  facet normal 0.406737 0.913545 -0
    outer loop
      vertex 34.45 27.1295 9
      vertex 38.2697 25.4289 0
      vertex 34.45 27.1295 0
    endloop
  endfacet
  facet normal 0.587785 0.809017 -0
    outer loop
      vertex 34.45 27.1295 9
      vertex 34.45 27.1295 0
      vertex 31.0674 29.5871 9
    endloop
  endfacet
  facet normal 0.587785 0.809017 -0
    outer loop
      vertex 31.0674 29.5871 9
      vertex 34.45 27.1295 0
      vertex 31.0674 29.5871 0
    endloop
  endfacet
  facet normal 0.743145 0.669131 0
    outer loop
      vertex 28.2697 32.6943 9
      vertex 31.0674 29.5871 9
      vertex 31.0674 29.5871 0
    endloop
  endfacet
  facet normal 0.743145 0.669131 0
    outer loop
      vertex 28.2697 32.6943 0
      vertex 28.2697 32.6943 9
      vertex 31.0674 29.5871 0
    endloop
  endfacet
  facet normal 0.866025 0.5 0
    outer loop
      vertex 26.1791 36.3153 9
      vertex 28.2697 32.6943 9
      vertex 28.2697 32.6943 0
    endloop
  endfacet
  facet normal 0.866025 0.5 0
    outer loop
      vertex 26.1791 36.3153 0
      vertex 26.1791 36.3153 9
      vertex 28.2697 32.6943 0
    endloop
  endfacet
  facet normal 0.951057 0.309017 0
    outer loop
      vertex 24.887 40.2918 9
      vertex 26.1791 36.3153 9
      vertex 26.1791 36.3153 0
    endloop
  endfacet
  facet normal 0.951057 0.309017 0
    outer loop
      vertex 24.887 40.2918 0
      vertex 24.887 40.2918 9
      vertex 26.1791 36.3153 0
    endloop
  endfacet
  facet normal 0.994522 0.104528 0
    outer loop
      vertex 24.45 44.45 9
      vertex 24.887 40.2918 9
      vertex 24.887 40.2918 0
    endloop
  endfacet
  facet normal 0.994522 0.104528 0
    outer loop
      vertex 24.45 44.45 0
      vertex 24.45 44.45 9
      vertex 24.887 40.2918 0
    endloop
  endfacet
  facet normal 0.994522 -0.104528 0
    outer loop
      vertex 24.5 44.9257 0
      vertex 24.5 44.9257 9
      vertex 24.45 44.45 9
    endloop
  endfacet
  facet normal 0.994522 -0.104528 0
    outer loop
      vertex 24.45 44.45 0
      vertex 24.5 44.9257 0
      vertex 24.45 44.45 9
    endloop
  endfacet
  facet normal 1 0 0
    outer loop
      vertex 24.5 60.552 0
      vertex 24.5 60.552 9
      vertex 24.5 44.9257 9
    endloop
  endfacet
  facet normal 1 0 0
    outer loop
      vertex 24.5 44.9257 0
      vertex 24.5 60.552 0
      vertex 24.5 44.9257 9
    endloop
  endfacet
  facet normal 0.951057 0.309017 0
    outer loop
      vertex 24.5 60.552 0
      vertex 23.2709 64.3347 0
      vertex 23.2709 64.3347 9
    endloop
  endfacet
  facet normal 0.951057 0.309017 -0
    outer loop
      vertex 24.5 60.552 9
      vertex 24.5 60.552 0
      vertex 23.2709 64.3347 9
    endloop
  endfacet
  facet normal 0.866025 0.5 0
    outer loop
      vertex 23.2709 64.3347 0
      vertex 21.1803 67.9557 0
      vertex 21.1803 67.9557 9
    endloop
  endfacet
  facet normal 0.866025 0.5 -0
    outer loop
      vertex 23.2709 64.3347 9
      vertex 23.2709 64.3347 0
      vertex 21.1803 67.9557 9
    endloop
  endfacet
  facet normal 0.743145 0.669131 0
    outer loop
      vertex 21.1803 67.9557 0
      vertex 18.3826 71.0629 0
      vertex 18.3826 71.0629 9
    endloop
  endfacet
  facet normal 0.743145 0.669131 -0
    outer loop
      vertex 21.1803 67.9557 9
      vertex 21.1803 67.9557 0
      vertex 18.3826 71.0629 9
    endloop
  endfacet
  facet normal 0.587785 0.809017 0
    outer loop
      vertex 15 73.5205 0
      vertex 15 73.5205 9
      vertex 18.3826 71.0629 0
    endloop
  endfacet
  facet normal 0.587785 0.809017 0
    outer loop
      vertex 18.3826 71.0629 0
      vertex 15 73.5205 9
      vertex 18.3826 71.0629 9
    endloop
  endfacet
  facet normal 0.406737 0.913545 0
    outer loop
      vertex 11.1803 75.2211 0
      vertex 11.1803 75.2211 9
      vertex 15 73.5205 0
    endloop
  endfacet
  facet normal 0.406737 0.913545 0
    outer loop
      vertex 15 73.5205 0
      vertex 11.1803 75.2211 9
      vertex 15 73.5205 9
    endloop
  endfacet
  facet normal 0.207912 0.978148 0
    outer loop
      vertex 7.09057 76.0904 0
      vertex 7.09057 76.0904 9
      vertex 11.1803 75.2211 0
    endloop
  endfacet
  facet normal 0.207912 0.978148 0
    outer loop
      vertex 11.1803 75.2211 0
      vertex 7.09057 76.0904 9
      vertex 11.1803 75.2211 9
    endloop
  endfacet
  facet normal 0 1 0
    outer loop
      vertex 2.90943 76.0904 0
      vertex 2.90943 76.0904 9
      vertex 7.09057 76.0904 0
    endloop
  endfacet
  facet normal 0 1 0
    outer loop
      vertex 7.09057 76.0904 0
      vertex 2.90943 76.0904 9
      vertex 7.09057 76.0904 9
    endloop
  endfacet
  facet normal 0.965926 -0.258819 0
    outer loop
      vertex 8.26795 32.75 0
      vertex 8.26795 32.75 9
      vertex 8 31.75 9
    endloop
  endfacet
  facet normal 0.965926 -0.258819 0
    outer loop
      vertex 8 31.75 0
      vertex 8.26795 32.75 0
      vertex 8 31.75 9
    endloop
  endfacet
  facet normal 0.965926 0.258819 0
    outer loop
      vertex 8 31.75 9
      vertex 8.26795 30.75 9
      vertex 8.26795 30.75 0
    endloop
  endfacet
  facet normal 0.965926 0.258819 0
    outer loop
      vertex 8 31.75 0
      vertex 8 31.75 9
      vertex 8.26795 30.75 0
    endloop
  endfacet
  facet normal 0.707107 -0.707107 0
    outer loop
      vertex 9 33.4821 0
      vertex 9 33.4821 9
      vertex 8.26795 32.75 9
    endloop
  endfacet
  facet normal 0.707107 -0.707107 0
    outer loop
      vertex 8.26795 32.75 0
      vertex 9 33.4821 0
      vertex 8.26795 32.75 9
    endloop
  endfacet
  facet normal 0.258819 -0.965926 0
    outer loop
      vertex 10 33.75 0
      vertex 10 33.75 9
      vertex 9 33.4821 9
    endloop
  endfacet
  facet normal 0.258819 -0.965926 0
    outer loop
      vertex 9 33.4821 0
      vertex 10 33.75 0
      vertex 9 33.4821 9
    endloop
  endfacet
  facet normal -0.258819 -0.965926 -0
    outer loop
      vertex 11 33.4821 0
      vertex 11 33.4821 9
      vertex 10 33.75 9
    endloop
  endfacet
  facet normal -0.258819 -0.965926 -0
    outer loop
      vertex 10 33.75 0
      vertex 11 33.4821 0
      vertex 10 33.75 9
    endloop
  endfacet
  facet normal -0.707107 -0.707107 0
    outer loop
      vertex 11.7321 32.75 9
      vertex 11 33.4821 9
      vertex 11.7321 32.75 0
    endloop
  endfacet
  facet normal -0.707107 -0.707107 0
    outer loop
      vertex 11.7321 32.75 0
      vertex 11 33.4821 9
      vertex 11 33.4821 0
    endloop
  endfacet
  facet normal -0.965926 -0.258819 0
    outer loop
      vertex 12 31.75 9
      vertex 11.7321 32.75 9
      vertex 12 31.75 0
    endloop
  endfacet
  facet normal -0.965926 -0.258819 0
    outer loop
      vertex 12 31.75 0
      vertex 11.7321 32.75 9
      vertex 11.7321 32.75 0
    endloop
  endfacet
  facet normal -0.965926 0.258819 0
    outer loop
      vertex 12 31.75 9
      vertex 12 31.75 0
      vertex 11.7321 30.75 9
    endloop
  endfacet
  facet normal -0.965926 0.258819 0
    outer loop
      vertex 11.7321 30.75 9
      vertex 12 31.75 0
      vertex 11.7321 30.75 0
    endloop
  endfacet
  facet normal -0.707107 0.707107 0
    outer loop
      vertex 11.7321 30.75 9
      vertex 11.7321 30.75 0
      vertex 11 30.0179 9
    endloop
  endfacet
  facet normal -0.707107 0.707107 0
    outer loop
      vertex 11 30.0179 9
      vertex 11.7321 30.75 0
      vertex 11 30.0179 0
    endloop
  endfacet
  facet normal -0.258819 0.965926 0
    outer loop
      vertex 11 30.0179 9
      vertex 11 30.0179 0
      vertex 10 29.75 9
    endloop
  endfacet
  facet normal -0.258819 0.965926 0
    outer loop
      vertex 10 29.75 9
      vertex 11 30.0179 0
      vertex 10 29.75 0
    endloop
  endfacet
  facet normal 0.258819 0.965926 -0
    outer loop
      vertex 10 29.75 9
      vertex 10 29.75 0
      vertex 9 30.0179 9
    endloop
  endfacet
  facet normal 0.258819 0.965926 -0
    outer loop
      vertex 9 30.0179 9
      vertex 10 29.75 0
      vertex 9 30.0179 0
    endloop
  endfacet
  facet normal 0.707107 0.707107 0
    outer loop
      vertex 8.26795 30.75 9
      vertex 9 30.0179 9
      vertex 9 30.0179 0
    endloop
  endfacet
  facet normal 0.707107 0.707107 0
    outer loop
      vertex 8.26795 30.75 0
      vertex 8.26795 30.75 9
      vertex 9 30.0179 0
    endloop
  endfacet
  facet normal 0.965926 -0.258819 0
    outer loop
      vertex 8.26795 64.5 0
      vertex 8.26795 64.5 9
      vertex 8 63.5 9
    endloop
  endfacet
  facet normal 0.965926 -0.258819 0
    outer loop
      vertex 8 63.5 0
      vertex 8.26795 64.5 0
      vertex 8 63.5 9
    endloop
  endfacet
  facet normal 0.965926 0.258819 0
    outer loop
      vertex 8 63.5 9
      vertex 8.26795 62.5 9
      vertex 8.26795 62.5 0
    endloop
  endfacet
  facet normal 0.965926 0.258819 0
    outer loop
      vertex 8 63.5 0
      vertex 8 63.5 9
      vertex 8.26795 62.5 0
    endloop
  endfacet
  facet normal 0.707107 -0.707107 0
    outer loop
      vertex 9 65.2321 0
      vertex 9 65.2321 9
      vertex 8.26795 64.5 9
    endloop
  endfacet
  facet normal 0.707107 -0.707107 0
    outer loop
      vertex 8.26795 64.5 0
      vertex 9 65.2321 0
      vertex 8.26795 64.5 9
    endloop
  endfacet
  facet normal 0.258819 -0.965926 0
    outer loop
      vertex 10 65.5 0
      vertex 10 65.5 9
      vertex 9 65.2321 9
    endloop
  endfacet
  facet normal 0.258819 -0.965926 0
    outer loop
      vertex 9 65.2321 0
      vertex 10 65.5 0
      vertex 9 65.2321 9
    endloop
  endfacet
  facet normal -0.258819 -0.965926 -0
    outer loop
      vertex 11 65.2321 0
      vertex 11 65.2321 9
      vertex 10 65.5 9
    endloop
  endfacet
  facet normal -0.258819 -0.965926 -0
    outer loop
      vertex 10 65.5 0
      vertex 11 65.2321 0
      vertex 10 65.5 9
    endloop
  endfacet
  facet normal -0.707107 -0.707107 0
    outer loop
      vertex 11.7321 64.5 9
      vertex 11 65.2321 9
      vertex 11.7321 64.5 0
    endloop
  endfacet
  facet normal -0.707107 -0.707107 0
    outer loop
      vertex 11.7321 64.5 0
      vertex 11 65.2321 9
      vertex 11 65.2321 0
    endloop
  endfacet
  facet normal -0.965926 -0.258819 0
    outer loop
      vertex 12 63.5 9
      vertex 11.7321 64.5 9
      vertex 12 63.5 0
    endloop
  endfacet
  facet normal -0.965926 -0.258819 0
    outer loop
      vertex 12 63.5 0
      vertex 11.7321 64.5 9
      vertex 11.7321 64.5 0
    endloop
  endfacet
  facet normal -0.965926 0.258819 0
    outer loop
      vertex 12 63.5 9
      vertex 12 63.5 0
      vertex 11.7321 62.5 9
    endloop
  endfacet
  facet normal -0.965926 0.258819 0
    outer loop
      vertex 11.7321 62.5 9
      vertex 12 63.5 0
      vertex 11.7321 62.5 0
    endloop
  endfacet
  facet normal -0.707107 0.707107 0
    outer loop
      vertex 11.7321 62.5 9
      vertex 11.7321 62.5 0
      vertex 11 61.7679 9
    endloop
  endfacet
  facet normal -0.707107 0.707107 0
    outer loop
      vertex 11 61.7679 9
      vertex 11.7321 62.5 0
      vertex 11 61.7679 0
    endloop
  endfacet
  facet normal -0.258819 0.965926 0
    outer loop
      vertex 11 61.7679 9
      vertex 11 61.7679 0
      vertex 10 61.5 9
    endloop
  endfacet
  facet normal -0.258819 0.965926 0
    outer loop
      vertex 10 61.5 9
      vertex 11 61.7679 0
      vertex 10 61.5 0
    endloop
  endfacet
  facet normal 0.258819 0.965926 -0
    outer loop
      vertex 10 61.5 9
      vertex 10 61.5 0
      vertex 9 61.7679 9
    endloop
  endfacet
  facet normal 0.258819 0.965926 -0
    outer loop
      vertex 9 61.7679 9
      vertex 10 61.5 0
      vertex 9 61.7679 0
    endloop
  endfacet
  facet normal 0.707107 0.707107 0
    outer loop
      vertex 8.26795 62.5 9
      vertex 9 61.7679 9
      vertex 9 61.7679 0
    endloop
  endfacet
  facet normal 0.707107 0.707107 0
    outer loop
      vertex 8.26795 62.5 0
      vertex 8.26795 62.5 9
      vertex 9 61.7679 0
    endloop
  endfacet
  facet normal 0.965926 -0.258819 0
    outer loop
      vertex 30.0179 11 0
      vertex 30.0179 11 9
      vertex 29.75 10 9
    endloop
  endfacet
  facet normal 0.965926 -0.258819 0
    outer loop
      vertex 29.75 10 0
      vertex 30.0179 11 0
      vertex 29.75 10 9
    endloop
  endfacet
  facet normal 0.965926 0.258819 0
    outer loop
      vertex 29.75 10 9
      vertex 30.0179 9 9
      vertex 30.0179 9 0
    endloop
  endfacet
  facet normal 0.965926 0.258819 0
    outer loop
      vertex 29.75 10 0
      vertex 29.75 10 9
      vertex 30.0179 9 0
    endloop
  endfacet
  facet normal 0.707107 -0.707107 0
    outer loop
      vertex 30.75 11.7321 0
      vertex 30.75 11.7321 9
      vertex 30.0179 11 9
    endloop
  endfacet
  facet normal 0.707107 -0.707107 0
    outer loop
      vertex 30.0179 11 0
      vertex 30.75 11.7321 0
      vertex 30.0179 11 9
    endloop
  endfacet
  facet normal 0.258819 -0.965926 0
    outer loop
      vertex 31.75 12 0
      vertex 31.75 12 9
      vertex 30.75 11.7321 9
    endloop
  endfacet
  facet normal 0.258819 -0.965926 0
    outer loop
      vertex 30.75 11.7321 0
      vertex 31.75 12 0
      vertex 30.75 11.7321 9
    endloop
  endfacet
  facet normal -0.258819 -0.965926 -0
    outer loop
      vertex 32.75 11.7321 0
      vertex 32.75 11.7321 9
      vertex 31.75 12 9
    endloop
  endfacet
  facet normal -0.258819 -0.965926 -0
    outer loop
      vertex 31.75 12 0
      vertex 32.75 11.7321 0
      vertex 31.75 12 9
    endloop
  endfacet
  facet normal -0.707107 -0.707107 -0
    outer loop
      vertex 33.4821 11 0
      vertex 33.4821 11 9
      vertex 32.75 11.7321 9
    endloop
  endfacet
  facet normal -0.707107 -0.707107 -0
    outer loop
      vertex 32.75 11.7321 0
      vertex 33.4821 11 0
      vertex 32.75 11.7321 9
    endloop
  endfacet
  facet normal -0.965926 -0.258819 0
    outer loop
      vertex 33.75 10 9
      vertex 33.4821 11 9
      vertex 33.75 10 0
    endloop
  endfacet
  facet normal -0.965926 -0.258819 0
    outer loop
      vertex 33.75 10 0
      vertex 33.4821 11 9
      vertex 33.4821 11 0
    endloop
  endfacet
  facet normal -0.965926 0.258819 0
    outer loop
      vertex 33.75 10 9
      vertex 33.75 10 0
      vertex 33.4821 9 9
    endloop
  endfacet
  facet normal -0.965926 0.258819 0
    outer loop
      vertex 33.4821 9 9
      vertex 33.75 10 0
      vertex 33.4821 9 0
    endloop
  endfacet
  facet normal -0.707107 0.707107 0
    outer loop
      vertex 33.4821 9 9
      vertex 33.4821 9 0
      vertex 32.75 8.26795 9
    endloop
  endfacet
  facet normal -0.707107 0.707107 0
    outer loop
      vertex 32.75 8.26795 9
      vertex 33.4821 9 0
      vertex 32.75 8.26795 0
    endloop
  endfacet
  facet normal -0.258819 0.965926 0
    outer loop
      vertex 32.75 8.26795 9
      vertex 32.75 8.26795 0
      vertex 31.75 8 9
    endloop
  endfacet
  facet normal -0.258819 0.965926 0
    outer loop
      vertex 31.75 8 9
      vertex 32.75 8.26795 0
      vertex 31.75 8 0
    endloop
  endfacet
  facet normal 0.258819 0.965926 -0
    outer loop
      vertex 31.75 8 9
      vertex 31.75 8 0
      vertex 30.75 8.26795 9
    endloop
  endfacet
  facet normal 0.258819 0.965926 -0
    outer loop
      vertex 30.75 8.26795 9
      vertex 31.75 8 0
      vertex 30.75 8.26795 0
    endloop
  endfacet
  facet normal 0.707107 0.707107 -0
    outer loop
      vertex 30.75 8.26795 9
      vertex 30.75 8.26795 0
      vertex 30.0179 9 9
    endloop
  endfacet
  facet normal 0.707107 0.707107 -0
    outer loop
      vertex 30.0179 9 9
      vertex 30.75 8.26795 0
      vertex 30.0179 9 0
    endloop
  endfacet
  facet normal 0.965926 0.258819 0
    outer loop
      vertex 61.5 10 9
      vertex 61.7679 9 9
      vertex 61.7679 9 0
    endloop
  endfacet
  facet normal 0.965926 0.258819 0
    outer loop
      vertex 61.5 10 0
      vertex 61.5 10 9
      vertex 61.7679 9 0
    endloop
  endfacet
  facet normal 0.965926 -0.258819 0
    outer loop
      vertex 61.7679 11 0
      vertex 61.7679 11 9
      vertex 61.5 10 9
    endloop
  endfacet
  facet normal 0.965926 -0.258819 0
    outer loop
      vertex 61.5 10 0
      vertex 61.7679 11 0
      vertex 61.5 10 9
    endloop
  endfacet
  facet normal 0.707107 -0.707107 0
    outer loop
      vertex 62.5 11.7321 0
      vertex 62.5 11.7321 9
      vertex 61.7679 11 9
    endloop
  endfacet
  facet normal 0.707107 -0.707107 0
    outer loop
      vertex 61.7679 11 0
      vertex 62.5 11.7321 0
      vertex 61.7679 11 9
    endloop
  endfacet
  facet normal 0.258819 -0.965926 0
    outer loop
      vertex 63.5 12 0
      vertex 63.5 12 9
      vertex 62.5 11.7321 9
    endloop
  endfacet
  facet normal 0.258819 -0.965926 0
    outer loop
      vertex 62.5 11.7321 0
      vertex 63.5 12 0
      vertex 62.5 11.7321 9
    endloop
  endfacet
  facet normal -0.258819 -0.965926 -0
    outer loop
      vertex 64.5 11.7321 0
      vertex 64.5 11.7321 9
      vertex 63.5 12 9
    endloop
  endfacet
  facet normal -0.258819 -0.965926 -0
    outer loop
      vertex 63.5 12 0
      vertex 64.5 11.7321 0
      vertex 63.5 12 9
    endloop
  endfacet
  facet normal -0.707107 -0.707107 -0
    outer loop
      vertex 65.2321 11 0
      vertex 65.2321 11 9
      vertex 64.5 11.7321 9
    endloop
  endfacet
  facet normal -0.707107 -0.707107 -0
    outer loop
      vertex 64.5 11.7321 0
      vertex 65.2321 11 0
      vertex 64.5 11.7321 9
    endloop
  endfacet
  facet normal -0.965926 -0.258819 0
    outer loop
      vertex 65.5 10 9
      vertex 65.2321 11 9
      vertex 65.5 10 0
    endloop
  endfacet
  facet normal -0.965926 -0.258819 0
    outer loop
      vertex 65.5 10 0
      vertex 65.2321 11 9
      vertex 65.2321 11 0
    endloop
  endfacet
  facet normal -0.965926 0.258819 0
    outer loop
      vertex 65.5 10 9
      vertex 65.5 10 0
      vertex 65.2321 9 9
    endloop
  endfacet
  facet normal -0.965926 0.258819 0
    outer loop
      vertex 65.2321 9 9
      vertex 65.5 10 0
      vertex 65.2321 9 0
    endloop
  endfacet
  facet normal -0.707107 0.707107 0
    outer loop
      vertex 65.2321 9 9
      vertex 65.2321 9 0
      vertex 64.5 8.26795 9
    endloop
  endfacet
  facet normal -0.707107 0.707107 0
    outer loop
      vertex 64.5 8.26795 9
      vertex 65.2321 9 0
      vertex 64.5 8.26795 0
    endloop
  endfacet
  facet normal -0.258819 0.965926 0
    outer loop
      vertex 64.5 8.26795 9
      vertex 64.5 8.26795 0
      vertex 63.5 8 9
    endloop
  endfacet
  facet normal -0.258819 0.965926 0
    outer loop
      vertex 63.5 8 9
      vertex 64.5 8.26795 0
      vertex 63.5 8 0
    endloop
  endfacet
  facet normal 0.258819 0.965926 -0
    outer loop
      vertex 63.5 8 9
      vertex 63.5 8 0
      vertex 62.5 8.26795 9
    endloop
  endfacet
  facet normal 0.258819 0.965926 -0
    outer loop
      vertex 62.5 8.26795 9
      vertex 63.5 8 0
      vertex 62.5 8.26795 0
    endloop
  endfacet
  facet normal 0.707107 0.707107 -0
    outer loop
      vertex 62.5 8.26795 9
      vertex 62.5 8.26795 0
      vertex 61.7679 9 9
    endloop
  endfacet
  facet normal 0.707107 0.707107 -0
    outer loop
      vertex 61.7679 9 9
      vertex 62.5 8.26795 0
      vertex 61.7679 9 0
    endloop
  endfacet
endsolid OpenSCAD_Model
