  0
SECTION
  2
BLOCKS
  0
ENDSEC
  0
SECTION
  2
ENTITIES
  0
LINE
  8
0
 10
8
 11
8.268
 20
31.75
 21
32.75
  0
LINE
  8
0
 10
8.268
 11
9
 20
32.75
 21
33.482
  0
LINE
  8
0
 10
9
 11
10
 20
33.482
 21
33.75
  0
LINE
  8
0
 10
10
 11
11
 20
33.75
 21
33.482
  0
LINE
  8
0
 10
11
 11
11.732
 20
33.482
 21
32.75
  0
LINE
  8
0
 10
11.732
 11
12
 20
32.75
 21
31.75
  0
LINE
  8
0
 10
12
 11
11.732
 20
31.75
 21
30.75
  0
LINE
  8
0
 10
11.732
 11
11
 20
30.75
 21
30.018
  0
LINE
  8
0
 10
11
 11
10
 20
30.018
 21
29.75
  0
LINE
  8
0
 10
10
 11
9
 20
29.75
 21
30.018
  0
LINE
  8
0
 10
9
 11
8.268
 20
30.018
 21
30.75
  0
LINE
  8
0
 10
8.268
 11
8
 20
30.75
 21
31.75
  0
LINE
  8
0
 10
8
 11
8.268
 20
63.5
 21
64.5
  0
LINE
  8
0
 10
8.268
 11
9
 20
64.5
 21
65.232
  0
LINE
  8
0
 10
9
 11
10
 20
65.232
 21
65.5
  0
LINE
  8
0
 10
10
 11
11
 20
65.5
 21
65.232
  0
LINE
  8
0
 10
11
 11
11.732
 20
65.232
 21
64.5
  0
LINE
  8
0
 10
11.732
 11
12
 20
64.5
 21
63.5
  0
LINE
  8
0
 10
12
 11
11.732
 20
63.5
 21
62.5
  0
LINE
  8
0
 10
11.732
 11
11
 20
62.5
 21
61.768
  0
LINE
  8
0
 10
11
 11
10
 20
61.768
 21
61.5
  0
LINE
  8
0
 10
10
 11
9
 20
61.5
 21
61.768
  0
LINE
  8
0
 10
9
 11
8.268
 20
61.768
 21
62.5
  0
LINE
  8
0
 10
8.268
 11
8
 20
62.5
 21
63.5
  0
LINE
  8
0
 10
0
 11
0
 20
19.89
 21
75.472
  0
LINE
  8
0
 10
0
 11
2.909
 20
75.472
 21
76.09
  0
LINE
  8
0
 10
2.909
 11
7.091
 20
76.09
 21
76.09
  0
LINE
  8
0
 10
7.091
 11
11.18
 20
76.09
 21
75.221
  0
LINE
  8
0
 10
11.18
 11
15
 20
75.221
 21
73.521
  0
LINE
  8
0
 10
15
 11
18.383
 20
73.521
 21
71.063
  0
LINE
  8
0
 10
18.383
 11
21.18
 20
71.063
 21
67.956
  0
LINE
  8
0
 10
21.18
 11
23.271
 20
67.956
 21
64.335
  0
LINE
  8
0
 10
23.271
 11
24.5
 20
64.335
 21
60.552
  0
LINE
  8
0
 10
24.5
 11
24.5
 20
60.552
 21
44.926
  0
LINE
  8
0
 10
24.5
 11
24.45
 20
44.926
 21
44.45
  0
LINE
  8
0
 10
24.45
 11
24.887
 20
44.45
 21
40.292
  0
LINE
  8
0
 10
24.887
 11
26.179
 20
40.292
 21
36.315
  0
LINE
  8
0
 10
26.179
 11
28.27
 20
36.315
 21
32.694
  0
LINE
  8
0
 10
28.27
 11
31.067
 20
32.694
 21
29.587
  0
LINE
  8
0
 10
31.067
 11
34.45
 20
29.587
 21
27.13
  0
LINE
  8
0
 10
34.45
 11
38.27
 20
27.13
 21
25.429
  0
LINE
  8
0
 10
38.27
 11
42.359
 20
25.429
 21
24.56
  0
LINE
  8
0
 10
42.359
 11
44
 20
24.56
 21
24.56
  0
LINE
  8
0
 10
44
 11
44
 20
24.56
 21
24.5
  0
LINE
  8
0
 10
44
 11
60.552
 20
24.5
 21
24.5
  0
LINE
  8
0
 10
60.552
 11
64.335
 20
24.5
 21
23.271
  0
LINE
  8
0
 10
64.335
 11
67.956
 20
23.271
 21
21.18
  0
LINE
  8
0
 10
67.956
 11
71.063
 20
21.18
 21
18.383
  0
LINE
  8
0
 10
71.063
 11
73.521
 20
18.383
 21
15
  0
LINE
  8
0
 10
73.521
 11
75.221
 20
15
 21
11.18
  0
LINE
  8
0
 10
75.221
 11
76.09
 20
11.18
 21
7.091
  0
LINE
  8
0
 10
76.09
 11
76.09
 20
7.091
 21
2.909
  0
LINE
  8
0
 10
76.09
 11
75.472
 20
2.909
 21
0
  0
LINE
  8
0
 10
75.472
 11
20
 20
0
 21
0
  0
LINE
  8
0
 10
20
 11
19.563
 20
0
 21
4.158
  0
LINE
  8
0
 10
19.563
 11
18.271
 20
4.158
 21
8.135
  0
LINE
  8
0
 10
18.271
 11
16.18
 20
8.135
 21
11.756
  0
LINE
  8
0
 10
16.18
 11
13.383
 20
11.756
 21
14.863
  0
LINE
  8
0
 10
13.383
 11
10
 20
14.863
 21
17.321
  0
LINE
  8
0
 10
10
 11
6.18
 20
17.321
 21
19.021
  0
LINE
  8
0
 10
6.18
 11
2.091
 20
19.021
 21
19.89
  0
LINE
  8
0
 10
2.091
 11
0
 20
19.89
 21
19.89
  0
LINE
  8
0
 10
29.75
 11
30.018
 20
10
 21
11
  0
LINE
  8
0
 10
30.018
 11
30.75
 20
11
 21
11.732
  0
LINE
  8
0
 10
30.75
 11
31.75
 20
11.732
 21
12
  0
LINE
  8
0
 10
31.75
 11
32.75
 20
12
 21
11.732
  0
LINE
  8
0
 10
32.75
 11
33.482
 20
11.732
 21
11
  0
LINE
  8
0
 10
33.482
 11
33.75
 20
11
 21
10
  0
LINE
  8
0
 10
33.75
 11
33.482
 20
10
 21
9
  0
LINE
  8
0
 10
33.482
 11
32.75
 20
9
 21
8.268
  0
LINE
  8
0
 10
32.75
 11
31.75
 20
8.268
 21
8
  0
LINE
  8
0
 10
31.75
 11
30.75
 20
8
 21
8.268
  0
LINE
  8
0
 10
30.75
 11
30.018
 20
8.268
 21
9
  0
LINE
  8
0
 10
30.018
 11
29.75
 20
9
 21
10
  0
LINE
  8
0
 10
61.5
 11
61.768
 20
10
 21
11
  0
LINE
  8
0
 10
61.768
 11
62.5
 20
11
 21
11.732
  0
LINE
  8
0
 10
62.5
 11
63.5
 20
11.732
 21
12
  0
LINE
  8
0
 10
63.5
 11
64.5
 20
12
 21
11.732
  0
LINE
  8
0
 10
64.5
 11
65.232
 20
11.732
 21
11
  0
LINE
  8
0
 10
65.232
 11
65.5
 20
11
 21
10
  0
LINE
  8
0
 10
65.5
 11
65.232
 20
10
 21
9
  0
LINE
  8
0
 10
65.232
 11
64.5
 20
9
 21
8.268
  0
LINE
  8
0
 10
64.5
 11
63.5
 20
8.268
 21
8
  0
LINE
  8
0
 10
63.5
 11
62.5
 20
8
 21
8.268
  0
LINE
  8
0
 10
62.5
 11
61.768
 20
8.268
 21
9
  0
LINE
  8
0
 10
61.768
 11
61.5
 20
9
 21
10
  0
ENDSEC
  0
SECTION
  2
OBJECTS
  0
DICTIONARY
  0
ENDSEC
  0
EOF
